<?xml version="1.0" encoding="UTF-8"?>
<!DOCTYPE svg PUBLIC "-//W3C//DTD SVG 1.1//EN" "http://www.w3.org/Graphics/SVG/1.1/DTD/svg11.dtd">
<svg xmlns="http://www.w3.org/2000/svg" version="1.1" width="200px" height="200px" style="shape-rendering:geometricPrecision; text-rendering:geometricPrecision; image-rendering:optimizeQuality; fill-rule:evenodd; clip-rule:evenodd" xmlns:xlink="http://www.w3.org/1999/xlink">
<g><path style="opacity:0.947" fill="#000000" d="M 199.5,65.5 C 199.5,79.5 199.5,93.5 199.5,107.5C 185.198,118.415 175.031,132.415 169,149.5C 159.318,160.734 146.985,165.734 132,164.5C 88.5148,163.448 49.0148,150.615 13.5,126C 8.66456,121.997 3.99789,117.83 -0.5,113.5C -0.5,99.5 -0.5,85.5 -0.5,71.5C 3.72064,66.7954 8.72064,62.962 14.5,60C 59.8358,40.1326 107.169,32.1326 156.5,36C 174.058,38.1838 187.892,46.3505 198,60.5C 198.198,62.3817 198.698,64.0484 199.5,65.5 Z M 131.5,40.5 C 145.884,40.2535 159.884,42.4202 173.5,47C 182.18,50.3462 188.18,56.3462 191.5,65C 189.063,69.7717 185.563,73.605 181,76.5C 178.333,79.8333 175.667,83.1667 173,86.5C 169,95.1667 165,103.833 161,112.5C 153,121.283 143,125.617 131,125.5C 96.8472,122.671 64.6806,113.171 34.5,97C 24.274,90.7742 15.274,83.1075 7.5,74C 8.89903,70.936 11.2324,68.936 14.5,68C 52.3669,53.2808 91.3669,44.1142 131.5,40.5 Z"/></g>
<g><path style="opacity:0.888" fill="#000000" d="M 169.5,54.5 C 172.244,55.0717 173.077,56.7383 172,59.5C 162.057,73.7147 153.39,88.7147 146,104.5C 144.746,108.77 143.746,113.104 143,117.5C 141.413,118.727 140.079,118.394 139,116.5C 138.849,109.104 138.182,101.771 137,94.5C 136.214,91.4173 134.381,89.2506 131.5,88C 110.113,85.7718 88.7792,83.1051 67.5,80C 61.8743,79.313 56.5409,77.813 51.5,75.5C 51.7093,74.914 52.0426,74.414 52.5,74C 62.4964,73.9469 72.4964,74.2802 82.5,75C 99.5,75.6667 116.5,75.6667 133.5,75C 147.115,70.8595 159.115,64.0262 169.5,54.5 Z"/></g>
</svg>
