<?xml version="1.0" encoding="UTF-8"?>
<svg version="1.1" xmlns="http://www.w3.org/2000/svg" width="186" height="146">
<path d="M0 0 C61.38 0 122.76 0 186 0 C186 48.18 186 96.36 186 146 C124.62 146 63.24 146 0 146 C0 97.82 0 49.64 0 0 Z " fill="#FEFEFE" transform="translate(0,0)"/>
<path d="M0 0 C0.6328125 2.93359375 0.6328125 2.93359375 1.125 6.4375 C1.94532647 11.23951482 1.94532647 11.23951482 5.19140625 14.5234375 C7.95061034 15.46319034 7.95061034 15.46319034 12 16 C12 21.61 12 27.22 12 33 C12.66 33 13.32 33 14 33 C16 36 16 36 15.6875 38.4375 C15.3471875 39.7059375 15.3471875 39.7059375 15 41 C14.814375 41.763125 14.62875 42.52625 14.4375 43.3125 C14.2209375 44.1478125 14.2209375 44.1478125 14 45 C14.66 45 15.32 45 16 45 C16.66 43.68 17.32 42.36 18 41 C18.99 41 19.98 41 21 41 C20.67 42.65 20.34 44.3 20 46 C19.34 46 18.68 46 18 46 C18 46.66 18 47.32 18 48 C14.53846154 51 14.53846154 51 12 51 C11.67 51.99 11.34 52.98 11 54 C6.66666667 57 6.66666667 57 4 57 C3.938125 57.78375 3.87625 58.5675 3.8125 59.375 C3.544375 60.24125 3.27625 61.1075 3 62 C1.35448038 62.71727778 -0.31422289 63.38325228 -2 64 C-3.09166275 65.93330603 -3.09166275 65.93330603 -4 68 C-7.23881099 71.11885502 -10.75160337 71.78617239 -15 73 C-16.35113205 73.97581759 -17.68946944 74.97029741 -19 76 C-19.99 76 -20.98 76 -22 76 C-22 76.66 -22 77.32 -22 78 C-24.64738916 79.4606285 -25.89448334 80 -29 80 C-29.495 81.485 -29.495 81.485 -30 83 C-33.5625 84.1875 -33.5625 84.1875 -37 85 C-37 85.66 -37 86.32 -37 87 C-37.87140625 87.36351563 -38.7428125 87.72703125 -39.640625 88.1015625 C-45.64781685 90.63706555 -51.5632916 93.22219098 -57.375 96.1875 C-63.38453227 99.2442794 -69.27807301 101.94969891 -76 103 C-76 103.66 -76 104.32 -76 105 C-77.093125 105.28875 -78.18625 105.5775 -79.3125 105.875 C-83.04013845 106.81893204 -83.04013845 106.81893204 -86 109 C-88.9609375 109.5546875 -88.9609375 109.5546875 -92.375 109.875 C-93.49648437 109.99617188 -94.61796875 110.11734375 -95.7734375 110.2421875 C-99.76494755 109.94258263 -101.21206704 108.80300287 -104 106 C-105.3125 103.25 -105.3125 103.25 -106 101 C-108.97 100.67 -111.94 100.34 -115 100 C-115 99.01 -115 98.02 -115 97 C-115.66 97 -116.32 97 -117 97 C-119.36214538 94.35153397 -120.87172132 92.38483604 -122 89 C-122.97850195 87.97895449 -123.97980427 86.9793879 -125 86 C-127.30656255 82.54015617 -127.85101961 79.38037107 -128.5625 75.375 C-129.0300174 70.81747584 -129.0300174 70.81747584 -131 67 C-131.77868767 61.15582863 -132.18626461 55.48519122 -129.6015625 50.0703125 C-126.76384383 46.44498211 -124.63574409 44.2979927 -120.01953125 43.45703125 C-117.28230635 43.43932604 -114.70511616 43.59721616 -112 44 C-112 45.32 -112 46.64 -112 48 C-110.35 47.34 -108.7 46.68 -107 46 C-107 45.01 -107 44.02 -107 43 C-107.66 43 -108.32 43 -109 43 C-109 42.34 -109 41.68 -109 41 C-106.69 41 -104.38 41 -102 41 C-101.34 39.68 -100.68 38.36 -100 37 C-98.68 37 -97.36 37 -96 37 C-95.505 36.01 -95.505 36.01 -95 35 C-94.01 35.33 -93.02 35.66 -92 36 C-92 35.34 -92 34.68 -92 34 C-90.40285156 33.90525391 -90.40285156 33.90525391 -88.7734375 33.80859375 C-78.3016573 32.99980758 -69.77942166 31.04504871 -61 25 C-59.58787742 23.31660124 -58.59899255 21.6772286 -57.53125 19.765625 C-54.43854769 16.19954989 -49.59398089 14.52394808 -45.375 12.578125 C-42.44190932 11.20663353 -39.75462674 9.69067038 -37 8 C-35.33927151 7.31867549 -33.672233 6.65257873 -32 6 C-31.030625 5.46375 -30.06125 4.9275 -29.0625 4.375 C-25.75933043 2.89194427 -23.57577897 2.74458722 -20 3 C-20 4.65 -20 6.3 -20 8 C-25.75 11 -25.75 11 -28 11 C-28 11.66 -28 12.32 -28 13 C-31.63 13.33 -35.26 13.66 -39 14 C-39.495 16.475 -39.495 16.475 -40 19 C-41.0625 21.3125 -41.0625 21.3125 -42 23 C-42.66 23 -43.32 23 -44 23 C-44.495 24.485 -44.495 24.485 -45 26 C-41.41627742 25.58649355 -39.60032667 23.84620671 -36.96875 21.5234375 C-34.44924942 19.57382395 -31.77072154 18.07053275 -29 16.5 C-20.60123863 12.05209385 -20.60123863 12.05209385 -15.75 4.3125 C-15.37875 2.6728125 -15.37875 2.6728125 -15 1 C-10.85663876 -3.14336124 -4.74553218 -3.16368812 0 0 Z " fill="#FDE7DA" transform="translate(141,10)"/>
<path d="M0 0 C0.29296875 2.1640625 0.29296875 2.1640625 0.1875 4.625 C0.14689453 5.85089844 0.14689453 5.85089844 0.10546875 7.1015625 C0.07066406 7.72804688 0.03585938 8.35453125 0 9 C-0.99 9 -1.98 9 -3 9 C-3 9.66 -3 10.32 -3 11 C-4.546875 11.8353125 -4.546875 11.8353125 -6.125 12.6875 C-8.70026671 14.14510096 -10.60632247 15.52723693 -12.875 17.5 C-17.20825093 21.26552554 -22.52336434 23.20958436 -27.9375 24.9375 C-31.76781556 26.26638499 -35.24162341 28.09636621 -38.828125 29.9765625 C-41 31 -41 31 -43 31 C-43 31.66 -43 32.32 -43 33 C-44.29233607 34.37310707 -45.62437146 35.71034824 -47 37 C-43.24543449 35.4981738 -40.16245813 34.11149088 -36.8125 31.8125 C-34 30 -34 30 -30 30 C-30.34459345 38.21855373 -30.34459345 38.21855373 -32.625 40.9375 C-35.67082357 42.30010528 -38.78405391 43.12292379 -42 44 C-42.99 44.66 -43.98 45.32 -45 46 C-47.33483448 46.74714703 -49.62728297 47.40218653 -52 48 C-52.66 48.17660156 -53.32 48.35320313 -54 48.53515625 C-60.5975903 50.1724259 -67.22886445 50.60231352 -74 51 C-74.33 51.99 -74.66 52.98 -75 54 C-77.64725137 55.44395529 -80.27073705 56.73172181 -83 58 C-84.66817496 58.85121724 -86.33481138 59.70545547 -88 60.5625 C-91.08083135 62.11239516 -94.12558329 63.47139667 -97.375 64.625 C-100.91312506 65.72748031 -100.91312506 65.72748031 -102.9375 67.6875 C-106.33230877 69.84783285 -110.08388925 69.22592947 -114 69 C-114 68.01 -114 67.02 -114 66 C-116.97 66.495 -116.97 66.495 -120 67 C-120 67.66 -120 68.32 -120 69 C-121.45792884 69.05399736 -122.91642712 69.09279177 -124.375 69.125 C-125.18710938 69.14820312 -125.99921875 69.17140625 -126.8359375 69.1953125 C-129 69 -129 69 -131 67 C-131.94307931 61.17919084 -132.18354889 55.46929837 -129.59765625 50.07421875 C-126.76561352 46.44294924 -124.63639743 44.29811172 -120.01953125 43.45703125 C-117.28230635 43.43932604 -114.70511616 43.59721616 -112 44 C-112 45.32 -112 46.64 -112 48 C-110.35 47.34 -108.7 46.68 -107 46 C-107 45.01 -107 44.02 -107 43 C-107.66 43 -108.32 43 -109 43 C-109 42.34 -109 41.68 -109 41 C-106.69 41 -104.38 41 -102 41 C-101.34 39.68 -100.68 38.36 -100 37 C-98.68 37 -97.36 37 -96 37 C-95.505 36.01 -95.505 36.01 -95 35 C-94.01 35.33 -93.02 35.66 -92 36 C-92 35.34 -92 34.68 -92 34 C-90.40285156 33.90525391 -90.40285156 33.90525391 -88.7734375 33.80859375 C-78.3016573 32.99980758 -69.77942166 31.04504871 -61 25 C-59.58787742 23.31660124 -58.59899255 21.6772286 -57.53125 19.765625 C-54.43854769 16.19954989 -49.59398089 14.52394808 -45.375 12.578125 C-42.44190932 11.20663353 -39.75462674 9.69067038 -37 8 C-35.33927151 7.31867549 -33.672233 6.65257873 -32 6 C-31.030625 5.46375 -30.06125 4.9275 -29.0625 4.375 C-25.75933043 2.89194427 -23.57577897 2.74458722 -20 3 C-20 4.65 -20 6.3 -20 8 C-25.75 11 -25.75 11 -28 11 C-28 11.66 -28 12.32 -28 13 C-31.63 13.33 -35.26 13.66 -39 14 C-39.495 16.475 -39.495 16.475 -40 19 C-41.0625 21.3125 -41.0625 21.3125 -42 23 C-42.66 23 -43.32 23 -44 23 C-44.495 24.485 -44.495 24.485 -45 26 C-41.41627742 25.58649355 -39.60032667 23.84620671 -36.96875 21.5234375 C-34.44924942 19.57382395 -31.77072154 18.07053275 -29 16.5 C-20.60123863 12.05209385 -20.60123863 12.05209385 -15.75 4.3125 C-15.37875 2.6728125 -15.37875 2.6728125 -15 1 C-10.85663876 -3.14336124 -4.74553218 -3.16368812 0 0 Z " fill="#FC9FA1" transform="translate(141,10)"/>
<path d="M0 0 C0.33 0 0.66 0 1 0 C1.99 4.95 1.99 4.95 3 10 C5.97 10.99 8.94 11.98 12 13 C11.96519531 14.01320313 11.93039063 15.02640625 11.89453125 16.0703125 C11.86637405 17.4218583 11.83907597 18.77342219 11.8125 20.125 C11.78736328 20.79015625 11.76222656 21.4553125 11.73632812 22.140625 C11.66618671 26.91024132 12.72782628 29.8659912 15 34 C14.375 36.0625 14.375 36.0625 13 38 C12.2575 39.36125 12.2575 39.36125 11.5 40.75 C10.7575 41.86375 10.7575 41.86375 10 43 C9.34 43 8.68 43 8 43 C8 43.66 8 44.32 8 45 C7.34 45 6.68 45 6 45 C6 45.66 6 46.32 6 47 C5.01 47.495 5.01 47.495 4 48 C3.67 48.99 3.34 49.98 3 51 C1.31628667 51.7593217 -0.37366317 52.50907194 -2.09765625 53.171875 C-4.29963312 54.05545479 -4.29963312 54.05545479 -7.125 56.1875 C-10.14681804 58.0925592 -11.5159983 58.40988255 -15 58 C-15 58.66 -15 59.32 -15 60 C-16.57967807 60.67528223 -18.16391903 61.33989694 -19.75 62 C-20.63171875 62.37125 -21.5134375 62.7425 -22.421875 63.125 C-25 64 -25 64 -29 64 C-29 63.34 -29 62.68 -29 62 C-28.01 62 -27.02 62 -26 62 C-26 61.34 -26 60.68 -26 60 C-20.41532229 56.03774843 -13.87316896 52.05631881 -7.25 50.25 C-2.33855782 48.36098378 2.07197549 45.50637216 6 42 C6.84712982 39.88437315 6.84712982 39.88437315 7 38 C6.34 38 5.68 38 5 38 C2 34.53846154 2 34.53846154 2 32 C1.2575 32.495 0.515 32.99 -0.25 33.5 C-3 35 -3 35 -7 35 C-7 35.66 -7 36.32 -7 37 C-12.625 40 -12.625 40 -16 40 C-16.33 40.99 -16.66 41.98 -17 43 C-18.890625 43.80859375 -18.890625 43.80859375 -21.25 44.4375 C-25.23799171 45.644058 -27.95964334 47.05465448 -31 50 C-31.495 50.99 -31.495 50.99 -32 52 C-35.80483089 54.82293904 -39.82470422 55.9072556 -44.30859375 57.18359375 C-49.76020182 58.83727457 -55.03100122 60.95522514 -60.0625 63.625 C-63.36122049 65.16908193 -66.48638993 65.88001437 -70.046875 66.5703125 C-72.06585653 66.93101557 -72.06585653 66.93101557 -74 68 C-76.6723621 68.13415472 -79.32250488 68.04318541 -82 68 C-82 68.66 -82 69.32 -82 70 C-83.26585937 70.27714844 -84.53171875 70.55429688 -85.8359375 70.83984375 C-89.3081222 71.61106286 -92.76964023 72.41697394 -96.2265625 73.25390625 C-97.556875 73.57584961 -97.556875 73.57584961 -98.9140625 73.90429688 C-100.72962837 74.3451079 -102.54473031 74.78783393 -104.359375 75.23242188 C-108.22799759 76.16574117 -112.04856022 77.06237422 -115.99609375 77.5859375 C-118.79643782 77.97194071 -120.59770438 78.55862263 -123 80 C-123.99 79.34 -124.98 78.68 -126 78 C-126.6875 74.375 -126.6875 74.375 -127 71 C-127.66 71 -128.32 71 -129 71 C-129 69.35 -129 67.7 -129 66 C-126.03 66 -123.06 66 -120 66 C-120 65.34 -120 64.68 -120 64 C-120.66 63.67 -121.32 63.34 -122 63 C-119.36 63 -116.72 63 -114 63 C-114 63.99 -114 64.98 -114 66 C-107.87715611 65.73320942 -104.75261267 65.03972077 -100 61 C-97.80399197 60.14198526 -95.58202897 59.46769513 -93.328125 58.77734375 C-90.38891927 57.79596465 -87.73203793 56.47891446 -84.9921875 55.04296875 C-82.22186507 53.59262348 -79.39230478 52.26797995 -76.56640625 50.9296875 C-74.81528651 50.08132551 -74.81528651 50.08132551 -74 48 C-71.375 47.4375 -71.375 47.4375 -68 47 C-53.46686981 45.49198788 -53.46686981 45.49198788 -41 39 C-39.67651865 38.7022167 -38.34067963 38.45701671 -37 38.25 C-34.85792268 37.82476817 -34.85792268 37.82476817 -33 37 C-31.42073819 34.17891717 -31.42073819 34.17891717 -31 31 C-30.79375 30.21625 -30.5875 29.4325 -30.375 28.625 C-30.25125 28.08875 -30.1275 27.5525 -30 27 C-33.75456551 28.5018262 -36.83754187 29.88850912 -40.1875 32.1875 C-43 34 -43 34 -47 34 C-46.34 32.68 -45.68 31.36 -45 30 C-44.34 30 -43.68 30 -43 30 C-43 29.34 -43 28.68 -43 28 C-36.17411013 24.09490626 -29.76797722 20.70398022 -22.13671875 18.6640625 C-18.16453289 17.42956232 -15.19896875 14.93662242 -11.96484375 12.41015625 C-11.25457031 11.86230469 -10.54429687 11.31445312 -9.8125 10.75 C-9.15894531 10.22921875 -8.50539063 9.7084375 -7.83203125 9.171875 C-6 8 -6 8 -3 8 C-3 7.34 -3 6.68 -3 6 C-2.01 6 -1.02 6 0 6 C0 4.02 0 2.04 0 0 Z " fill="#FBB3B7" transform="translate(141,13)"/>
<path d="M0 0 C0.99 0 1.98 0 3 0 C6 3.33333333 6 3.33333333 6 6 C6.66 6 7.32 6 8 6 C7.723965 9.43843595 7.27144911 10.7393525 4.7421875 13.16796875 C-0.42836042 16.80989419 -4.71317258 19.71934997 -11 21 C-19.5081493 23.37166735 -27.6494854 27.09965693 -35 32 C-36.96710167 32.39840034 -38.94942111 32.72476534 -40.9375 33 C-44.7038054 33.52270905 -47.69272463 34.08735882 -51 36 C-51 36.66 -51 37.32 -51 38 C-51.60328125 38.19335938 -52.2065625 38.38671875 -52.828125 38.5859375 C-53.62734375 38.84632812 -54.4265625 39.10671875 -55.25 39.375 C-56.03890625 39.63023438 -56.8278125 39.88546875 -57.640625 40.1484375 C-59.98892763 40.93593685 -59.98892763 40.93593685 -62.03125 42.0625 C-65.25051415 43.59548293 -68.47136181 43.64713618 -72 44 C-72 44.66 -72 45.32 -72 46 C-74.97 46.99 -77.94 47.98 -81 49 C-81 49.66 -81 50.32 -81 51 C-82.29035156 51.19335938 -83.58070312 51.38671875 -84.91015625 51.5859375 C-86.62764035 51.84872195 -88.34508627 52.11175604 -90.0625 52.375 C-91.33383789 52.56449219 -91.33383789 52.56449219 -92.63085938 52.7578125 C-96.45318802 53.34813353 -100.16752075 53.97908304 -103.875 55.09375 C-107.37059198 56.10747167 -110.37924627 56.14778587 -114 56 C-113.505 56.86625 -113.505 56.86625 -113 57.75 C-112 60 -112 60 -112 64 C-110.02 64 -108.04 64 -106 64 C-106 64.33 -106 64.66 -106 65 C-108.64 65 -111.28 65 -114 65 C-114 64.01 -114 63.02 -114 62 C-114.66 62 -115.32 62 -116 62 C-118.36214538 59.35153397 -119.87172132 57.38483604 -121 54 C-121.97850195 52.97895449 -122.97980427 51.9793879 -124 51 C-126.02350324 47.96474514 -126.32124018 46.80573798 -126.625 43.3125 C-126.69976562 42.50425781 -126.77453125 41.69601563 -126.8515625 40.86328125 C-126.90054688 40.24839844 -126.94953125 39.63351563 -127 39 C-125.25372522 41.61941217 -124.61277612 43.03824877 -124 46 C-122.10820797 46.6814823 -122.10820797 46.6814823 -120 47 C-119.34 46.34 -118.68 45.68 -118 45 C-115.57628263 44.46205297 -113.19749045 44.01651863 -110.75 43.625 C-104.02694698 42.47619613 -97.68561169 40.85361143 -91.18359375 38.76953125 C-87.69031202 37.92514291 -84.58077725 37.86905102 -81 38 C-81 37.34 -81 36.68 -81 36 C-80.40574219 35.89042969 -79.81148437 35.78085938 -79.19921875 35.66796875 C-67.96348423 33.84161218 -67.96348423 33.84161218 -57.609375 29.52734375 C-54.4996209 27.70711343 -51.54529766 26.90756942 -48.0625 26 C-43.35360866 24.77025689 -39.31510847 23.24485412 -35 21 C-33.8553125 20.7525 -33.8553125 20.7525 -32.6875 20.5 C-32.130625 20.335 -31.57375 20.17 -31 20 C-30.505 18.515 -30.505 18.515 -30 17 C-26.37323645 13.37323645 -22.70981601 12.06733232 -17.890625 10.7109375 C-15.80172193 10.16993333 -15.80172193 10.16993333 -15 8 C-9.69230769 5 -9.69230769 5 -6 5 C-6 4.34 -6 3.68 -6 3 C-5.195625 2.690625 -4.39125 2.38125 -3.5625 2.0625 C-1.10919595 1.23664655 -1.10919595 1.23664655 0 0 Z " fill="#FCE5DB" transform="translate(140,45)"/>
<path d="M0 0 C-1.09288182 3.27864546 -1.66172933 3.78134149 -4.375 5.6875 C-4.98085937 6.12449219 -5.58671875 6.56148438 -6.2109375 7.01171875 C-8 8 -8 8 -11 8 C-11 8.66 -11 9.32 -11 10 C-13.64738916 11.4606285 -14.89448334 12 -18 12 C-18.33 12.99 -18.66 13.98 -19 15 C-22.5625 16.1875 -22.5625 16.1875 -26 17 C-26 17.66 -26 18.32 -26 19 C-26.87140625 19.36351563 -27.7428125 19.72703125 -28.640625 20.1015625 C-34.64781685 22.63706555 -40.5632916 25.22219098 -46.375 28.1875 C-52.38453227 31.2442794 -58.27807301 33.94969891 -65 35 C-65 35.66 -65 36.32 -65 37 C-66.093125 37.28875 -67.18625 37.5775 -68.3125 37.875 C-72.04013845 38.81893204 -72.04013845 38.81893204 -75 41 C-77.9609375 41.5546875 -77.9609375 41.5546875 -81.375 41.875 C-82.49648437 41.99617188 -83.61796875 42.11734375 -84.7734375 42.2421875 C-88.7743216 41.94187901 -90.21593504 40.82405153 -93 38 C-93.7115625 36.4221875 -93.7115625 36.4221875 -94.4375 34.8125 C-94.953125 33.884375 -95.46875 32.95625 -96 32 C-97.99422795 31.63371323 -99.99453311 31.29868656 -102 31 C-103.67282031 28.11058309 -104 26.3408643 -104 23 C-85.06383979 19.03974721 -85.06383979 19.03974721 -75.8125 17.9375 C-70.17623153 17.2545024 -65.29168202 16.04240359 -60 14 C-60 13.34 -60 12.68 -60 12 C-58.4221875 11.62875 -58.4221875 11.62875 -56.8125 11.25 C-49.46071393 9.40551275 -41.94063918 7.47508304 -35.0625 4.25 C-31.7993162 2.91808825 -29.48892573 2.74471275 -26 3 C-26 3.66 -26 4.32 -26 5 C-30.99654366 7.75319753 -36.01304573 9.75228505 -41.4375 11.5 C-47.1379908 13.33902668 -52.60737925 15.38847926 -58 18 C-59.11375 18.515625 -60.2275 19.03125 -61.375 19.5625 C-63.75484238 20.86574702 -65.15701787 22.06925682 -67 24 C-67.99 24.33 -68.98 24.66 -70 25 C-70.33 25.66 -70.66 26.32 -71 27 C-74.5 28.5 -74.5 28.5 -78 30 C-78.33 30.66 -78.66 31.32 -79 32 C-79.99 32 -80.98 32 -82 32 C-82 32.99 -82 33.98 -82 35 C-78.535 35.495 -78.535 35.495 -75 36 C-75 35.34 -75 34.68 -75 34 C-74.030625 33.71125 -73.06125 33.4225 -72.0625 33.125 C-68.89335797 32.35785318 -68.89335797 32.35785318 -68 30 C-67.01 30 -66.02 30 -65 30 C-64.505 28.515 -64.505 28.515 -64 27 C-63.01 26.896875 -62.02 26.79375 -61 26.6875 C-57.5188377 26.19496874 -54.48275512 25.07032722 -51.20263672 23.80444336 C-46.8023875 22.19739158 -42.25832511 21.03401094 -37.74023438 19.80664062 C-35.80986805 19.26121382 -33.90216156 18.6368563 -32 18 C-31.67 17.34 -31.34 16.68 -31 16 C-29.38375534 15.11063786 -27.73169109 14.28550169 -26.0625 13.5 C-22.2248649 11.69388758 -22.2248649 11.69388758 -19 9 C-17.3588435 8.3301402 -15.7174092 7.66094859 -14.07421875 6.99609375 C-10.8110631 5.4290416 -7.94924266 3.31492786 -5.015625 1.20703125 C-3 0 -3 0 0 0 Z " fill="#FAD2C9" transform="translate(130,78)"/>
<path d="M0 0 C-0.34459345 8.21855373 -0.34459345 8.21855373 -2.625 10.9375 C-5.67082357 12.30010528 -8.78405391 13.12292379 -12 14 C-12.99 14.66 -13.98 15.32 -15 16 C-17.33483448 16.74714703 -19.62728297 17.40218653 -22 18 C-22.66 18.17660156 -23.32 18.35320313 -24 18.53515625 C-30.5975903 20.1724259 -37.22886445 20.60231352 -44 21 C-44.495 22.485 -44.495 22.485 -45 24 C-47.64725137 25.44395529 -50.27073705 26.73172181 -53 28 C-54.66817496 28.85121724 -56.33481138 29.70545547 -58 30.5625 C-61.08083135 32.11239516 -64.12558329 33.47139667 -67.375 34.625 C-70.91312506 35.72748031 -70.91312506 35.72748031 -72.9375 37.6875 C-76.33230877 39.84783285 -80.08388925 39.22592947 -84 39 C-84 38.01 -84 37.02 -84 36 C-86.97 36.495 -86.97 36.495 -90 37 C-90 37.66 -90 38.32 -90 39 C-91.47906892 39.02689216 -92.95827483 39.04634621 -94.4375 39.0625 C-95.26121094 39.07410156 -96.08492187 39.08570313 -96.93359375 39.09765625 C-99 39 -99 39 -100 38 C-100.04080783 36.00041636 -100.04254356 33.99954746 -100 32 C-97.69 32.33 -95.38 32.66 -93 33 C-93 32.01 -93 31.02 -93 30 C-85.08 29.01 -77.16 28.02 -69 27 C-69 26.01 -69 25.02 -69 24 C-67.75539217 23.32332002 -66.50403104 22.65905281 -65.25 22 C-64.55390625 21.62875 -63.8578125 21.2575 -63.140625 20.875 C-61 20 -61 20 -57 20 C-56.505 18.515 -56.505 18.515 -56 17 C-53.68970915 16.25740651 -51.354248 15.588562 -49 15 C-48.67 14.67 -48.34 14.34 -48 14 C-44.50670355 13.76156265 -41.02034449 13.60471792 -37.52148438 13.48242188 C-32.98546077 13.27391429 -29.30174255 12.5798435 -25 11 C-23.948125 10.95875 -22.89625 10.9175 -21.8125 10.875 C-15.86804595 9.51069907 -11.74602802 5.69555367 -7 2 C-4 0 -4 0 0 0 Z " fill="#F78D94" transform="translate(111,40)"/>
<path d="M0 0 C-0.03480469 1.01320313 -0.06960937 2.02640625 -0.10546875 3.0703125 C-0.13362595 4.4218583 -0.16092403 5.77342219 -0.1875 7.125 C-0.21263672 7.79015625 -0.23777344 8.4553125 -0.26367188 9.140625 C-0.33381329 13.91024132 0.72782628 16.8659912 3 21 C2.375 23.0625 2.375 23.0625 1 25 C0.505 25.9075 0.01 26.815 -0.5 27.75 C-0.995 28.4925 -1.49 29.235 -2 30 C-2.66 30 -3.32 30 -4 30 C-4 30.66 -4 31.32 -4 32 C-4.66 32 -5.32 32 -6 32 C-6 32.66 -6 33.32 -6 34 C-6.99 34.495 -6.99 34.495 -8 35 C-8.33 35.99 -8.66 36.98 -9 38 C-10.68371333 38.7593217 -12.37366317 39.50907194 -14.09765625 40.171875 C-16.29963312 41.05545479 -16.29963312 41.05545479 -19.125 43.1875 C-22.14681804 45.0925592 -23.5159983 45.40988255 -27 45 C-27 45.66 -27 46.32 -27 47 C-28.57967807 47.67528223 -30.16391903 48.33989694 -31.75 49 C-32.63171875 49.37125 -33.5134375 49.7425 -34.421875 50.125 C-37 51 -37 51 -41 51 C-41 50.34 -41 49.68 -41 49 C-40.01 49 -39.02 49 -38 49 C-38 48.34 -38 47.68 -38 47 C-32.41532229 43.03774843 -25.87316896 39.05631881 -19.25 37.25 C-14.33855782 35.36098378 -9.92802451 32.50637216 -6 29 C-5.15287018 26.88437315 -5.15287018 26.88437315 -5 25 C-5.66 25 -6.32 25 -7 25 C-10 21.53846154 -10 21.53846154 -10 19 C-14.95 19.495 -14.95 19.495 -20 20 C-20.33 19.34 -20.66 18.68 -21 18 C-20.09515208 16.84481082 -19.1755794 15.70114594 -18.25 14.5625 C-17.73953125 13.92441406 -17.2290625 13.28632812 -16.703125 12.62890625 C-14.80332371 10.81189446 -13.56413092 10.39576803 -11 10 C-11 9.34 -11 8.68 -11 8 C-17.0201114 10.08388472 -22.47539587 12.74321977 -28.0703125 15.79296875 C-31.27462508 17.11314553 -33.56902187 17.22907124 -37 17 C-36.8359375 14.69140625 -36.8359375 14.69140625 -36 12 C-33.6015625 10.33984375 -33.6015625 10.33984375 -30.625 8.9375 C-26.62757845 7.0337148 -24.56537061 5.5702042 -22 2 C-19.3125 1.75 -19.3125 1.75 -17 2 C-17 1.34 -17 0.68 -17 0 C-11.09730818 -2.8715798 -6.10891923 -1.4130952 0 0 Z " fill="#F9AEB1" transform="translate(153,26)"/>
<path d="M0 0 C0.29296875 2.1640625 0.29296875 2.1640625 0.1875 4.625 C0.14689453 5.85089844 0.14689453 5.85089844 0.10546875 7.1015625 C0.07066406 7.72804688 0.03585938 8.35453125 0 9 C-0.99 9 -1.98 9 -3 9 C-3 9.66 -3 10.32 -3 11 C-4.546875 11.8353125 -4.546875 11.8353125 -6.125 12.6875 C-8.70026671 14.14510096 -10.60632247 15.52723693 -12.875 17.5 C-17.20825093 21.26552554 -22.52336434 23.20958436 -27.9375 24.9375 C-31.76781556 26.26638499 -35.24162341 28.09636621 -38.828125 29.9765625 C-41 31 -41 31 -43 31 C-43 31.66 -43 32.32 -43 33 C-47.97504047 36.24900602 -50.88225104 37.49940808 -57 37 C-57 36.01 -57 35.02 -57 34 C-53.48003369 31.91675463 -50.16090117 30.0665798 -46.375 28.5 C-42.51179909 26.78302182 -39.55999033 24.72696178 -36.72265625 21.5859375 C-34.42894817 19.47426974 -31.91020188 18.13875375 -29.1875 16.625 C-20.68078072 12.12291932 -20.68078072 12.12291932 -15.75 4.3125 C-15.5025 3.219375 -15.255 2.12625 -15 1 C-10.85663876 -3.14336124 -4.74553218 -3.16368812 0 0 Z " fill="#EC6573" transform="translate(141,10)"/>
<path d="M0 0 C0 0.66 0 1.32 0 2 C-4.99654366 4.75319753 -10.01304573 6.75228505 -15.4375 8.5 C-21.1379908 10.33902668 -26.60737925 12.38847926 -32 15 C-33.11375 15.515625 -34.2275 16.03125 -35.375 16.5625 C-37.75484238 17.86574702 -39.15701787 19.06925682 -41 21 C-41.99 21.33 -42.98 21.66 -44 22 C-44.33 22.66 -44.66 23.32 -45 24 C-47.21484375 25.03515625 -47.21484375 25.03515625 -49.9375 26.0625 C-53.52024761 27.41423906 -53.52024761 27.41423906 -57 29 C-57 30.32 -57 31.64 -57 33 C-54.36 33.33 -51.72 33.66 -49 34 C-51.49801277 36.60662202 -53.80997869 37.39138007 -57.3125 37.75 C-60.49979654 37.66029132 -61.69573482 37.26151259 -64.140625 35.16015625 C-68.87641009 29.375183 -68.87641009 29.375183 -69.24609375 25.26171875 C-69 23 -69 23 -68 22 C-65.32941149 21.85884839 -62.67567762 21.95752893 -60 22 C-60 21.34 -60 20.68 -60 20 C-53.71627004 16.97364476 -47.8182752 14.47729296 -41 13 C-38.6579884 12.36086325 -36.3306622 11.67977648 -34 11 C-34 10.34 -34 9.68 -34 9 C-32.4221875 8.62875 -32.4221875 8.62875 -30.8125 8.25 C-23.46071393 6.40551275 -15.94063918 4.47508304 -9.0625 1.25 C-5.7993162 -0.08191175 -3.48892573 -0.25528725 0 0 Z " fill="#F69497" transform="translate(104,81)"/>
<path d="M0 0 C0 1.65 0 3.3 0 5 C-5.75 8 -5.75 8 -8 8 C-8 8.66 -8 9.32 -8 10 C-11.63 10.33 -15.26 10.66 -19 11 C-19.33 12.65 -19.66 14.3 -20 16 C-21.38966179 20.42012907 -24.7582958 21.92837174 -28.625 24 C-29.25873535 24.34740234 -29.8924707 24.69480469 -30.54541016 25.05273438 C-31.79901951 25.73681299 -33.05530771 26.41600937 -34.31445312 27.08984375 C-35.69755331 27.83668579 -37.06254914 28.61696402 -38.421875 29.40625 C-43.22272615 32.09472664 -46.65025313 32.38212478 -52 32 C-52 30.68 -52 29.36 -52 28 C-51.26394531 27.64808594 -50.52789062 27.29617187 -49.76953125 26.93359375 C-43.25378426 23.86138759 -43.25378426 23.86138759 -38.6875 18.5625 C-35.76009324 13.6544686 -30.35912692 11.87683871 -25.375 9.578125 C-22.44190932 8.20663353 -19.75462674 6.69067038 -17 5 C-15.33927151 4.31867549 -13.672233 3.65257873 -12 3 C-11.030625 2.46375 -10.06125 1.9275 -9.0625 1.375 C-5.75933043 -0.10805573 -3.57577897 -0.25541278 0 0 Z " fill="#EC5362" transform="translate(121,13)"/>
<path d="M0 0 C0.66 0.33 1.32 0.66 2 1 C-4.42341673 6.81166276 -9.38351102 8.29712031 -18 8 C-18.33 6.68 -18.66 5.36 -19 4 C-19.99 4 -20.98 4 -22 4 C-22 5.65 -22 7.3 -22 9 C-14.74 8.67 -7.48 8.34 0 8 C0 7.34 0 6.68 0 6 C0.59167969 5.80664062 1.18335938 5.61328125 1.79296875 5.4140625 C5.9146645 4.05585281 9.9950524 2.67949415 14 1 C13.67 1.66 13.34 2.32 13 3 C12.34 3 11.68 3 11 3 C11 3.66 11 4.32 11 5 C9.02 5.99 7.04 6.98 5 8 C5.495 8.99 5.495 8.99 6 10 C1.37630977 11.80679587 -2.42528653 12.21839082 -7.375 12.125 C-8.62023437 12.10695313 -9.86546875 12.08890625 -11.1484375 12.0703125 C-12.55996094 12.03550781 -12.55996094 12.03550781 -14 12 C-14 12.99 -14 13.98 -14 15 C-15.36125 15.4021875 -15.36125 15.4021875 -16.75 15.8125 C-19.98370103 16.78160949 -19.98370103 16.78160949 -22.0625 18.75 C-22.701875 19.1625 -23.34125 19.575 -24 20 C-26.75 19.1875 -26.75 19.1875 -29 18 C-29.33 15.69 -29.66 13.38 -30 11 C-30.66 11 -31.32 11 -32 11 C-32 9.35 -32 7.7 -32 6 C-29.03 6 -26.06 6 -23 6 C-23 5.34 -23 4.68 -23 4 C-23.66 3.67 -24.32 3.34 -25 3 C-22.36 3 -19.72 3 -17 3 C-17 3.99 -17 4.98 -17 6 C-11.03984151 5.7402981 -7.49892387 5.23428129 -3 1 C-2.01 0.67 -1.02 0.34 0 0 Z " fill="#F9B5B9" transform="translate(44,73)"/>
<path d="M0 0 C1.32 0.66 2.64 1.32 4 2 C4.33 1.67 4.66 1.34 5 1 C7.33297433 0.95907063 9.66705225 0.95758277 12 1 C12 1.66 12 2.32 12 3 C3.18634695 7.63876476 -5.36545289 10.49098707 -15.19140625 12.2890625 C-16.58166016 12.64097656 -16.58166016 12.64097656 -18 13 C-18.33 13.66 -18.66 14.32 -19 15 C-19.99 15 -20.98 15 -22 15 C-22.33 15.99 -22.66 16.98 -23 18 C-24.98 18.33 -26.96 18.66 -29 19 C-29 19.66 -29 20.32 -29 21 C-31.31 20.67 -33.62 20.34 -36 20 C-36 19.01 -36 18.02 -36 17 C-35.01 17 -34.02 17 -33 17 C-32.67 16.01 -32.34 15.02 -32 14 C-29.39757586 12.35179805 -28.13751221 12 -25 12 C-24.67 11.01 -24.34 10.02 -24 9 C-21.671875 7.68359375 -21.671875 7.68359375 -18.75 6.4375 C-17.79609375 6.02371094 -16.8421875 5.60992187 -15.859375 5.18359375 C-14.91578125 4.79300781 -13.9721875 4.40242188 -13 4 C-11.700625 3.44699219 -11.700625 3.44699219 -10.375 2.8828125 C-7.30212751 1.74059345 -4.23929791 1.43605933 -1 1 C-0.67 0.67 -0.34 0.34 0 0 Z " fill="#FCE8DC" transform="translate(84,93)"/>
<path d="M0 0 C3.96 0 7.92 0 12 0 C12.495 1.485 12.495 1.485 13 3 C16.63 2.67 20.26 2.34 24 2 C24 2.66 24 3.32 24 4 C16.54306025 7.4627258 9.78002324 8.50515015 1.66430664 8.67163086 C-2.62895845 8.60990425 -2.62895845 8.60990425 -6 11 C-7.010625 11.165 -8.02125 11.33 -9.0625 11.5 C-10.031875 11.665 -11.00125 11.83 -12 12 C-12.33 12.66 -12.66 13.32 -13 14 C-15.30731345 14.91009077 -17.58399633 15.73027135 -19.9375 16.5 C-24.87988794 18.00254101 -24.87988794 18.00254101 -29 21 C-32.125 21.125 -32.125 21.125 -35 21 C-34.67 20.34 -34.34 19.68 -34 19 C-33.360625 18.87625 -32.72125 18.7525 -32.0625 18.625 C-29.80148727 18.19060573 -29.80148727 18.19060573 -28.75 15.9375 C-28.5025 15.298125 -28.255 14.65875 -28 14 C-28.66 13.67 -29.32 13.34 -30 13 C-27.93084772 10.93084772 -23.66248499 11.62050599 -20.859375 11.4765625 C-17.58381866 10.93063644 -15.76766966 9.80667325 -13 8 C-9.86348157 6.43572114 -6.70754257 4.9171515 -3.546875 3.40234375 C-0.89024514 2.25365958 -0.89024514 2.25365958 0 0 Z " fill="#FAE2D7" transform="translate(67,46)"/>
<path d="M0 0 C1.24007812 -0.01675781 2.48015625 -0.03351563 3.7578125 -0.05078125 C6.875 0.3125 6.875 0.3125 8.8046875 1.83203125 C9.33449219 2.56486328 9.33449219 2.56486328 9.875 3.3125 C9.215 3.3125 8.555 3.3125 7.875 3.3125 C7.875 3.9725 7.875 4.6325 7.875 5.3125 C7.24851563 5.57804687 6.62203125 5.84359375 5.9765625 6.1171875 C5.15929688 6.47039062 4.34203125 6.82359375 3.5 7.1875 C2.68789063 7.53554687 1.87578125 7.88359375 1.0390625 8.2421875 C-1.26302299 9.23696067 -1.26302299 9.23696067 -3.125 11.3125 C-5.2890625 11.5078125 -5.2890625 11.5078125 -7.75 11.4375 C-8.56726563 11.41945313 -9.38453125 11.40140625 -10.2265625 11.3828125 C-10.85304688 11.35960938 -11.47953125 11.33640625 -12.125 11.3125 C-12.125 10.3225 -12.125 9.3325 -12.125 8.3125 C-14.105 8.6425 -16.085 8.9725 -18.125 9.3125 C-18.125 9.9725 -18.125 10.6325 -18.125 11.3125 C-19.60406892 11.33939216 -21.08327483 11.35884621 -22.5625 11.375 C-23.79806641 11.39240234 -23.79806641 11.39240234 -25.05859375 11.41015625 C-27.125 11.3125 -27.125 11.3125 -28.125 10.3125 C-28.16580783 8.31291636 -28.16754356 6.31204746 -28.125 4.3125 C-25.815 4.6425 -23.505 4.9725 -21.125 5.3125 C-21.125 4.3225 -21.125 3.3325 -21.125 2.3125 C-14.09108179 0.9840028 -7.15489727 0.09117869 0 0 Z " fill="#F05D6D" transform="translate(39.125,67.6875)"/>
<path d="M0 0 C1.51400391 0.01740234 1.51400391 0.01740234 3.05859375 0.03515625 C4.07050781 0.04417969 5.08242187 0.05320313 6.125 0.0625 C6.90746094 0.07410156 7.68992188 0.08570313 8.49609375 0.09765625 C6.93136567 4.5382966 5.68625541 5.89782138 1.49609375 8.09765625 C0.83609375 8.75765625 0.17609375 9.41765625 -0.50390625 10.09765625 C-2.49211938 10.49529888 -4.49334964 10.83540974 -6.50390625 11.09765625 C-4.85390625 12.41765625 -3.20390625 13.73765625 -1.50390625 15.09765625 C-2.30828125 15.71640625 -3.11265625 16.33515625 -3.94140625 16.97265625 C-6.54265144 18.83929666 -6.54265144 18.83929666 -7.50390625 21.09765625 C-12.37811474 24.34712857 -16.57362825 26.43652928 -22.50390625 26.09765625 C-20.37480459 23.76294041 -18.4287329 22.41619444 -15.56640625 21.09765625 C-12.59658178 19.68085926 -10.1166534 18.10746175 -7.50390625 16.09765625 C-6.84390625 16.09765625 -6.18390625 16.09765625 -5.50390625 16.09765625 C-5.83390625 15.43765625 -6.16390625 14.77765625 -6.50390625 14.09765625 C-8.50345371 14.05511269 -10.50432261 14.05684842 -12.50390625 14.09765625 C-12.83390625 14.42765625 -13.16390625 14.75765625 -13.50390625 15.09765625 C-19.46742346 16.17588146 -25.46521022 16.19350857 -31.50390625 16.09765625 C-28.57066745 13.34774488 -26.19562671 11.84883719 -22.31640625 10.97265625 C-18.50543621 10.45319563 -18.50543621 10.45319563 -16.50390625 8.09765625 C-14.61671875 7.69546875 -14.61671875 7.69546875 -12.69140625 7.28515625 C-8.43431503 6.32537568 -6.34147341 4.45114471 -3.50390625 1.09765625 C-2.50390625 0.09765625 -2.50390625 0.09765625 0 0 Z " fill="#FCC1BF" transform="translate(116.50390625,43.90234375)"/>
<path d="M0 0 C1.18529297 0.01353516 1.18529297 0.01353516 2.39453125 0.02734375 C3.28205078 0.04474609 3.28205078 0.04474609 4.1875 0.0625 C1.98471592 2.3466369 0.15392998 3.85738782 -2.8125 5.0625 C-3.8025 5.0625 -4.7925 5.0625 -5.8125 5.0625 C-5.8125 5.7225 -5.8125 6.3825 -5.8125 7.0625 C-8.8125 9.0625 -8.8125 9.0625 -12.1875 10 C-15.60774277 11.00248495 -17.85250182 12.13850119 -20.8125 14.0625 C-27.96679202 18.64985854 -27.96679202 18.64985854 -32.8125 18.0625 C-32.8125 18.7225 -32.8125 19.3825 -32.8125 20.0625 C-35.66410391 20.87684143 -38.17876131 21.18131242 -41.140625 21.16015625 C-41.93984375 21.15693359 -42.7390625 21.15371094 -43.5625 21.15039062 C-44.3875 21.14201172 -45.2125 21.13363281 -46.0625 21.125 C-46.90296875 21.12048828 -47.7434375 21.11597656 -48.609375 21.11132812 C-50.67711401 21.09957961 -52.74481624 21.08164522 -54.8125 21.0625 C-54.8125 19.4125 -54.8125 17.7625 -54.8125 16.0625 C-53.8225 16.0625 -52.8325 16.0625 -51.8125 16.0625 C-51.4825 17.0525 -51.1525 18.0425 -50.8125 19.0625 C-41.68184841 19.72654739 -35.82972201 16.71050796 -28.8125 11.0625 C-26.38692939 9.75741422 -23.92312358 8.55790822 -21.44140625 7.36328125 C-18.1770709 5.74809006 -15.04983205 3.9349145 -11.91796875 2.078125 C-8.03571556 0.20542402 -4.25957971 -0.06357582 0 0 Z " fill="#FBE6DC" transform="translate(76.8125,60.9375)"/>
<path d="M0 0 C0 0.99 0 1.98 0 3 C-2 4.6875 -2 4.6875 -4 6 C-2.06745228 8.0245738 -0.36841312 9.42105792 2 11 C-1.10671717 13.17470202 -4.00321801 14.34361565 -7.625 15.3125 C-12.78957302 16.75485823 -17.13415224 19.09820536 -21.75 21.79296875 C-24 23 -24 23 -26 23 C-26 23.66 -26 24.32 -26 25 C-30.97504047 28.24900602 -33.88225104 29.49940808 -40 29 C-40 28.01 -40 27.02 -40 26 C-36.48003369 23.91675463 -33.16090117 22.0665798 -29.375 20.5 C-25.51179909 18.78302182 -22.55999033 16.72696178 -19.72265625 13.5859375 C-17.42894817 11.47426974 -14.91020188 10.13875375 -12.1875 8.625 C-7.70351856 6.06505423 -3.80000361 3.48333664 0 0 Z " fill="#F66D7D" transform="translate(124,18)"/>
<path d="M0 0 C0.495 1.98 0.495 1.98 1 4 C-2.03525486 6.02350324 -3.19426202 6.32124018 -6.6875 6.625 C-7.49574219 6.69976562 -8.30398437 6.77453125 -9.13671875 6.8515625 C-10.05904297 6.92503906 -10.05904297 6.92503906 -11 7 C-11 7.66 -11 8.32 -11 9 C-14.73544834 11.6034943 -18.81430385 13.24961797 -23 15 C-23.680625 15.391875 -24.36125 15.78375 -25.0625 16.1875 C-27.74360887 17.31183598 -30.12813114 17.13053949 -33 17 C-32.8359375 14.69140625 -32.8359375 14.69140625 -32 12 C-29.6015625 10.33984375 -29.6015625 10.33984375 -26.625 8.9375 C-22.62757845 7.0337148 -20.56537061 5.5702042 -18 2 C-15.3125 1.75 -15.3125 1.75 -13 2 C-13 1.34 -13 0.68 -13 0 C-7.95531271 -2.21474076 -5.14089313 -1.85072153 0 0 Z " fill="#F96176" transform="translate(149,26)"/>
<path d="M0 0 C-1.28813342 0.83878455 -2.58063256 1.67086783 -3.875 2.5 C-4.59429687 2.9640625 -5.31359375 3.428125 -6.0546875 3.90625 C-8 5 -8 5 -10 5 C-10 5.66 -10 6.32 -10 7 C-10.99 7 -11.98 7 -13 7 C-13 7.66 -13 8.32 -13 9 C-12.32453125 8.79503906 -11.6490625 8.59007813 -10.953125 8.37890625 C-10.06109375 8.10949219 -9.1690625 7.84007813 -8.25 7.5625 C-7.36828125 7.29566406 -6.4865625 7.02882813 -5.578125 6.75390625 C-3.39434165 6.11531506 -1.21164502 5.53224167 1 5 C1 4.34 1 3.68 1 3 C1.99 3.495 1.99 3.495 3 4 C1.71613466 6.56773068 0.78034931 6.6737777 -1.859375 7.69140625 C-2.64570312 7.99626953 -3.43203125 8.30113281 -4.2421875 8.61523438 C-5.06976563 8.92783203 -5.89734375 9.24042969 -6.75 9.5625 C-7.96816406 10.03719727 -7.96816406 10.03719727 -9.2109375 10.52148438 C-14.10926273 12.40023941 -18.55943555 14.1061115 -23.875 13.875 C-27.00977425 14.00039097 -28.9913593 14.7433794 -31.796875 16.0703125 C-35.81584524 17.76626093 -40.02965037 18.89257744 -44.20703125 20.1328125 C-46.91995839 20.89252922 -46.91995839 20.89252922 -49 22 C-50.99960012 22.039992 -53.00047242 22.04346799 -55 22 C-55 22.66 -55 23.32 -55 24 C-56.4562545 24.67119549 -57.91507867 25.33681807 -59.375 26 C-60.59316406 26.556875 -60.59316406 26.556875 -61.8359375 27.125 C-64 28 -64 28 -66 28 C-66 27.34 -66 26.68 -66 26 C-63.03 25.01 -60.06 24.02 -57 23 C-57 22.34 -57 21.68 -57 21 C-56.22914062 20.80664062 -55.45828125 20.61328125 -54.6640625 20.4140625 C-53.66117188 20.15367188 -52.65828125 19.89328125 -51.625 19.625 C-50.62726563 19.36976562 -49.62953125 19.11453125 -48.6015625 18.8515625 C-45.87458985 18.17595681 -45.87458985 18.17595681 -44 16 C-41.34462628 15.43479997 -38.70855287 15.26211802 -36 15 C-36 14.34 -36 13.68 -36 13 C-32.13307196 10.44947299 -29.40800098 8.83481986 -24.75 8.625 C-18.69772297 8.21116909 -14.10585195 5.04767907 -9 2 C-3.46482036 -1.15494012 -3.46482036 -1.15494012 0 0 Z " fill="#FAE1D2" transform="translate(125,68)"/>
<path d="M0 0 C-0.33 1.65 -0.66 3.3 -1 5 C-1.66 5 -2.32 5 -3 5 C-3.33 5.99 -3.66 6.98 -4 8 C-6.46875 9.3515625 -6.46875 9.3515625 -9.5 10.625 C-13.00256002 11.91522384 -13.00256002 11.91522384 -16 14 C-18.35313555 14.07271741 -20.70833668 14.08370868 -23.0625 14.0625 C-24.35285156 14.05347656 -25.64320312 14.04445313 -26.97265625 14.03515625 C-27.97167969 14.02355469 -28.97070312 14.01195312 -30 14 C-30 12.68 -30 11.36 -30 10 C-27.02588876 8.76078698 -24.14737182 7.69941596 -21 7 C-21 6.34 -21 5.68 -21 5 C-13.67792164 1.09368028 -8.28451302 -0.14041547 0 0 Z " fill="#E95364" transform="translate(65,44)"/>
<path d="M0 0 C-5.80157004 4.35117753 -13.63811051 9 -21 9 C-21 9.66 -21 10.32 -21 11 C-19.55989519 10.74337755 -18.1229313 10.46909179 -16.6875 10.1875 C-15.88699219 10.03667969 -15.08648437 9.88585937 -14.26171875 9.73046875 C-11.94887234 9.18107002 -11.94887234 9.18107002 -10.58203125 7.51953125 C-7.70626685 4.75737729 -3.61447288 4.62650912 0.1875 3.84375 C3.03140313 2.99057906 4.17511895 2.28110131 6 0 C6.66 0.33 7.32 0.66 8 1 C5.63707344 3.52588702 4.33537489 4.88820837 1 6 C0.67 6.66 0.34 7.32 0 8 C-2.21484375 9.03515625 -2.21484375 9.03515625 -4.9375 10.0625 C-8.52024761 11.41423906 -8.52024761 11.41423906 -12 13 C-12 14.32 -12 15.64 -12 17 C-9.36 17.33 -6.72 17.66 -4 18 C-6.49801277 20.60662202 -8.80997869 21.39138007 -12.3125 21.75 C-15.49979654 21.66029132 -16.69573482 21.26151259 -19.140625 19.16015625 C-23.87641009 13.375183 -23.87641009 13.375183 -24.24609375 9.26171875 C-24 7 -24 7 -23 6 C-20.32941149 5.85884839 -17.67567762 5.95752893 -15 6 C-15 5.34 -15 4.68 -15 4 C-13.25705322 3.13153169 -11.50531337 2.28069373 -9.75 1.4375 C-8.77546875 0.96183594 -7.8009375 0.48617187 -6.796875 -0.00390625 C-3.90143703 -1.03510273 -2.80033839 -1.11346788 0 0 Z " fill="#F4848A" transform="translate(59,97)"/>
<path d="M0 0 C0.66 0 1.32 0 2 0 C4 3 4 3 3.6875 5.4375 C3.460625 6.283125 3.23375 7.12875 3 8 C2.814375 8.763125 2.62875 9.52625 2.4375 10.3125 C2.2209375 11.1478125 2.2209375 11.1478125 2 12 C2.66 12 3.32 12 4 12 C4.66 10.68 5.32 9.36 6 8 C6.99 8 7.98 8 9 8 C8.67 9.65 8.34 11.3 8 13 C7.34 13 6.68 13 6 13 C6 13.66 6 14.32 6 15 C2.53846154 18 2.53846154 18 0 18 C-0.33 18.99 -0.66 19.98 -1 21 C-5.33333333 24 -5.33333333 24 -8 24 C-8.226875 24.61875 -8.45375 25.2375 -8.6875 25.875 C-10.37929835 28.61410209 -11.99244161 29.05024472 -15 30 C-15 30.66 -15 31.32 -15 32 C-15.99 32.66 -16.98 33.32 -18 34 C-18.99 33.67 -19.98 33.34 -21 33 C-19.59070303 29.52867905 -18.09394917 28.11906726 -14.875 26.25 C-14.15054688 25.82203125 -13.42609375 25.3940625 -12.6796875 24.953125 C-12.12539062 24.63859375 -11.57109375 24.3240625 -11 24 C-11.61875 24.185625 -12.2375 24.37125 -12.875 24.5625 C-15 25 -15 25 -17 24 C-13.93882432 21.37613513 -13.26826873 21 -9 21 C-8.67 19.68 -8.34 18.36 -8 17 C-7.34 17 -6.68 17 -6 17 C-6 16.34 -6 15.68 -6 15 C-5.34 15 -4.68 15 -4 15 C-4 14.34 -4 13.68 -4 13 C-3.34 12.67 -2.68 12.34 -2 12 C0.39715444 8.58866484 1 7.29387011 1 3 C0.67 2.01 0.34 1.02 0 0 Z " fill="#F9CAC2" transform="translate(153,43)"/>
<path d="M0 0 C1.32 0.33 2.64 0.66 4 1 C3.34 1.99 2.68 2.98 2 4 C1.814375 4.9075 1.62875 5.815 1.4375 6.75 C-1.8219091 14.11909883 -10.88271278 18.73477521 -18 22 C-18.66 22 -19.32 22 -20 22 C-20.33 22.99 -20.66 23.98 -21 25 C-22.8125 26.75 -22.8125 26.75 -25 28 C-27.25 27.6875 -27.25 27.6875 -29 27 C-28.401875 26.505 -27.80375 26.01 -27.1875 25.5 C-24.70087786 22.65814612 -23.91625921 20.28857705 -22.90625 16.70703125 C-22 15 -22 15 -20.140625 14.265625 C-17.08648432 13.88664404 -14.07301303 13.9409036 -11 14 C-11 13.34 -11 12.68 -11 12 C-9.865625 11.608125 -8.73125 11.21625 -7.5625 10.8125 C-3.79660949 9.41389118 -3.79660949 9.41389118 -3.0625 6.3125 C-3.041875 5.549375 -3.02125 4.78625 -3 4 C-4.98 4 -6.96 4 -9 4 C-8.67 3.34 -8.34 2.68 -8 2 C-5.36 2 -2.72 2 0 2 C0 1.34 0 0.68 0 0 Z " fill="#FBD7D0" transform="translate(124,9)"/>
<path d="M0 0 C0 1.65 0 3.3 0 5 C-5.75 8 -5.75 8 -8 8 C-8 8.66 -8 9.32 -8 10 C-11.63 10.33 -15.26 10.66 -19 11 C-19.33 12.65 -19.66 14.3 -20 16 C-21.41041524 20.23124573 -24.28807853 21.74056954 -28 24 C-28.66 23.67 -29.32 23.34 -30 23 C-29.67 22.67 -29.34 22.34 -29 22 C-29.66 21.67 -30.32 21.34 -31 21 C-31 20.34 -31 19.68 -31 19 C-29.02 19.33 -27.04 19.66 -25 20 C-25 19.34 -25 18.68 -25 18 C-24.01 18 -23.02 18 -22 18 C-21.67 15.69 -21.34 13.38 -21 11 C-21.99 11.495 -21.99 11.495 -23 12 C-24.99960012 12.039992 -27.00047242 12.04346799 -29 12 C-23.62313411 8.41542274 -18.05039388 5.28933823 -12 3 C-11.030625 2.46375 -10.06125 1.9275 -9.0625 1.375 C-5.75933043 -0.10805573 -3.57577897 -0.25541278 0 0 Z " fill="#F06C7C" transform="translate(121,13)"/>
<path d="M0 0 C0 0.66 0 1.32 0 2 C-2.64738916 3.4606285 -3.89448334 4 -7 4 C-6.505 5.98 -6.505 5.98 -6 8 C-1.545 7.505 -1.545 7.505 3 7 C-0.08669204 10.08669204 -0.91927658 10.44855089 -5 11 C-5.33 11.99 -5.66 12.98 -6 14 C-7.84765625 14.73046875 -7.84765625 14.73046875 -10.0625 15.1875 C-10.79597656 15.34605469 -11.52945313 15.50460938 -12.28515625 15.66796875 C-12.85105469 15.77753906 -13.41695312 15.88710937 -14 16 C-13.67 15.34 -13.34 14.68 -13 14 C-10.4375 13.375 -10.4375 13.375 -8 13 C-8 12.34 -8 11.68 -8 11 C-10.31 11 -12.62 11 -15 11 C-15 11.66 -15 12.32 -15 13 C-16.65 12.34 -18.3 11.68 -20 11 C-20.33 11.33 -20.66 11.66 -21 12 C-22.485 12.1546875 -22.485 12.1546875 -24 12.3125 C-28.09569605 12.81280242 -31.41647247 14.42818764 -35.08203125 16.2578125 C-36.03142578 16.62519531 -36.03142578 16.62519531 -37 17 C-37.66 16.67 -38.32 16.34 -39 16 C-36.23713041 13.77330373 -33.68786526 12.31966223 -30.375 11.0625 C-29.49585937 10.72476563 -28.61671875 10.38703125 -27.7109375 10.0390625 C-26.81632812 9.69617188 -25.92171875 9.35328125 -25 9 C-23.33290154 8.31354769 -21.66622626 7.62606669 -20 6.9375 C-15.77829355 5.23681257 -11.51804083 3.90861467 -7.12890625 2.7109375 C-4.4509054 1.81663263 -2.86865141 0 0 0 Z " fill="#FCE0D5" transform="translate(104,83)"/>
<path d="M0 0 C-0.34459345 8.21855373 -0.34459345 8.21855373 -2.625 10.9375 C-8.41061783 13.52580271 -13.63045653 14.23662909 -19.9375 14.125 C-20.62134766 14.11597656 -21.30519531 14.10695313 -22.00976562 14.09765625 C-23.67333287 14.07438958 -25.33671631 14.03853167 -27 14 C-24.73410542 12.20656854 -23.18299679 11.0522848 -20.375 10.25 C-15.32517744 8.37969535 -11.32529478 5.1564974 -7 2 C-4 0 -4 0 0 0 Z " fill="#F56776" transform="translate(111,40)"/>
<path d="M0 0 C0 1.32 0 2.64 0 4 C1.98 4 3.96 4 6 4 C6.33 5.32 6.66 6.64 7 8 C6.43152344 8.03738281 5.86304687 8.07476562 5.27734375 8.11328125 C1.3266987 8.44964669 -2.08277228 8.84904198 -5.6875 10.5625 C-9.11112304 12.04822321 -11.3182363 12.26939734 -15 12 C-15 10.68 -15 9.36 -15 8 C-14.34 8 -13.68 8 -13 8 C-12.9175 7.4225 -12.835 6.845 -12.75 6.25 C-10.4927133 -0.52186009 -6.25303597 -0.41686906 0 0 Z " fill="#EA5D6C" transform="translate(27,55)"/>
<path d="M0 0 C0 3 0 3 -1 6 C-1.66 6 -2.32 6 -3 6 C-3 7.32 -3 8.64 -3 10 C5.02715768 8.80039297 13.0237581 7.50253855 21 6 C21.33 5.01 21.66 4.02 22 3 C22.66 3 23.32 3 24 3 C23.25 5.4375 23.25 5.4375 22 8 C19.875 8.8125 19.875 8.8125 18 9 C21.62528568 9.20140476 23.86501708 8.85776765 27 7 C27 7.99 27 8.98 27 10 C18.91038514 11.95829294 11.34525522 13.51917486 3 13 C3 13.99 3 14.98 3 16 C0.69 15.67 -1.62 15.34 -4 15 C-4 16.65 -4 18.3 -4 20 C-4.33 20 -4.66 20 -5 20 C-5.86140345 6.02612175 -5.86140345 6.02612175 -2.5 2.125 C-1.2625 1.073125 -1.2625 1.073125 0 0 Z " fill="#F3D4CA" transform="translate(15,57)"/>
<path d="M0 0 C1.4540625 0.0309375 1.4540625 0.0309375 2.9375 0.0625 C3.2675 1.0525 3.5975 2.0425 3.9375 3.0625 C-1.52731912 7.4343553 -7.20098873 10.44431817 -14.0625 12.0625 C-16.39453125 11.6640625 -16.39453125 11.6640625 -18.0625 11.0625 C-18.0625 9.7425 -18.0625 8.4225 -18.0625 7.0625 C-19.7125 7.0625 -21.3625 7.0625 -23.0625 7.0625 C-22.7325 6.4025 -22.4025 5.7425 -22.0625 5.0625 C-20.3125 4.48413086 -20.3125 4.48413086 -18.0625 4.02734375 C-16.8559375 3.77307617 -16.8559375 3.77307617 -15.625 3.51367188 C-14.779375 3.34416016 -13.93375 3.17464844 -13.0625 3 C-11.39517415 2.65814737 -9.72846763 2.31325525 -8.0625 1.96484375 C-6.94875 1.74042603 -6.94875 1.74042603 -5.8125 1.51147461 C-2.90533306 0.76562081 -3.51769994 0.07178979 0 0 Z " fill="#FBA8B0" transform="translate(107.0625,56.9375)"/>
<path d="M0 0 C-1 2 -1 2 -2.85546875 2.74609375 C-3.62503906 2.97425781 -4.39460938 3.20242187 -5.1875 3.4375 C-8.00327486 4.31548964 -10.36845416 5.19190321 -13 6.5625 C-16.32857489 8.15744213 -19.44141448 8.87129464 -23.046875 9.5703125 C-25.06585653 9.93101557 -25.06585653 9.93101557 -27 11 C-29.6723621 11.13415472 -32.32250488 11.04318541 -35 11 C-35 11.66 -35 12.32 -35 13 C-36.26328125 13.27585937 -37.5265625 13.55171875 -38.828125 13.8359375 C-42.32847745 14.61303219 -45.81495227 15.43324926 -49.296875 16.2890625 C-50.19277344 16.50820312 -51.08867188 16.72734375 -52.01171875 16.953125 C-53.8537892 17.40510234 -55.694926 17.86090018 -57.53515625 18.3203125 C-58.42589844 18.536875 -59.31664062 18.7534375 -60.234375 18.9765625 C-61.03069336 19.17330566 -61.82701172 19.37004883 -62.64746094 19.57275391 C-65.14543489 20.02641252 -67.46664301 20.07358531 -70 20 C-69.67 19.34 -69.34 18.68 -69 18 C-67.35 18 -65.7 18 -64 18 C-64.33 17.01 -64.66 16.02 -65 15 C-64 14 -64 14 -61.05078125 13.97265625 C-58.5715428 14.03224087 -56.0923719 14.09471035 -53.61328125 14.16015625 C-50.00388955 14.0001724 -47.36634887 13.24125059 -44 12 C-41.125 11.875 -41.125 11.875 -39 12 C-39 11.34 -39 10.68 -39 10 C-38.38253906 9.96261719 -37.76507813 9.92523438 -37.12890625 9.88671875 C-31.00723528 9.41152055 -25.71207918 8.22962198 -20 6 C-19.34773438 5.74992187 -18.69546875 5.49984375 -18.0234375 5.2421875 C-15.40389611 4.18322396 -13.23692198 3.21322979 -11.125 1.3125 C-7.67471922 -0.81855577 -3.95213923 -0.22800803 0 0 Z " fill="#FCBEC0" transform="translate(94,70)"/>
<path d="M0 0 C-3.36423277 2.96052484 -6.69159287 3.92289822 -11 5 C-11 5.66 -11 6.32 -11 7 C-13.64 7.33 -16.28 7.66 -19 8 C-19.15149298 11.62885324 -19.15149298 11.62885324 -18 15 C-21.09402174 14.57345791 -24.0541239 14.05556072 -27 13 C-28.8822585 10.06367674 -29 8.47037417 -29 5 C-28.41508789 4.88406494 -27.83017578 4.76812988 -27.22753906 4.64868164 C-24.5681563 4.12097191 -21.90907635 3.59175142 -19.25 3.0625 C-18.32960938 2.88009766 -17.40921875 2.69769531 -16.4609375 2.50976562 C-15.57148437 2.33251953 -14.68203125 2.15527344 -13.765625 1.97265625 C-12.94868164 1.81031494 -12.13173828 1.64797363 -11.29003906 1.48071289 C-9.81019945 1.17007279 -8.33676562 0.82627037 -6.87402344 0.44311523 C-4.54955685 -0.10650786 -2.37944107 -0.06609559 0 0 Z " fill="#F9CAC4" transform="translate(55,96)"/>
<path d="M0 0 C1.98 0 3.96 0 6 0 C6 1.65 6 3.3 6 5 C6.598125 5.2475 7.19625 5.495 7.8125 5.75 C10.28647521 7.16370012 11.43370255 8.65055383 13 11 C11.79618552 13.49361571 10.54571278 15.68143083 9 18 C8.01 17.67 7.02 17.34 6 17 C5.33333333 15 4.66666667 13 4 11 C3.01 10.67 2.02 10.34 1 10 C-0.98511244 7.32009821 -1.01340927 6.11621369 -0.625 2.75 C-0.41875 1.8425 -0.2125 0.935 0 0 Z " fill="#E55E71" transform="translate(143,36)"/>
<path d="M0 0 C1.2065625 0.0309375 1.2065625 0.0309375 2.4375 0.0625 C1.14885185 3.92844445 -0.41561663 4.58380566 -3.8125 6.75 C-4.76640625 7.37261719 -5.7203125 7.99523437 -6.703125 8.63671875 C-9.65628911 10.10926643 -11.32034127 10.37606645 -14.5625 10.0625 C-14.5625 10.7225 -14.5625 11.3825 -14.5625 12.0625 C-16.14217807 12.73778223 -17.72641903 13.40239694 -19.3125 14.0625 C-20.63507813 14.619375 -20.63507813 14.619375 -21.984375 15.1875 C-24.5625 16.0625 -24.5625 16.0625 -28.5625 16.0625 C-28.5625 15.4025 -28.5625 14.7425 -28.5625 14.0625 C-27.5725 14.0625 -26.5825 14.0625 -25.5625 14.0625 C-25.5625 13.4025 -25.5625 12.7425 -25.5625 12.0625 C-18.81962174 7.27852116 -11.40121647 3.61464024 -3.5625 1.0625 C-2.5625 0.0625 -2.5625 0.0625 0 0 Z " fill="#F5959A" transform="translate(140.5625,60.9375)"/>
<path d="M0 0 C0 0.66 0 1.32 0 2 C1.98 2.33 3.96 2.66 6 3 C-3.92307692 9.61538462 -3.92307692 9.61538462 -9 9 C-9 9.66 -9 10.32 -9 11 C-11.85160391 11.81434143 -14.36626131 12.11881242 -17.328125 12.09765625 C-18.12734375 12.09443359 -18.9265625 12.09121094 -19.75 12.08789062 C-20.575 12.07951172 -21.4 12.07113281 -22.25 12.0625 C-23.09046875 12.05798828 -23.9309375 12.05347656 -24.796875 12.04882812 C-26.86461401 12.03707961 -28.93231624 12.01914522 -31 12 C-31 10.35 -31 8.7 -31 7 C-30.01 7 -29.02 7 -28 7 C-27.67 7.99 -27.34 8.98 -27 10 C-19.11342087 10.57356939 -13.48409114 8.5751978 -7.125 3.875 C-6.42375 3.25625 -5.7225 2.6375 -5 2 C-2 0 -2 0 0 0 Z " fill="#FBDBD2" transform="translate(53,70)"/>
<path d="M0 0 C0.33 0 0.66 0 1 0 C1.08636719 0.69867188 1.17273438 1.39734375 1.26171875 2.1171875 C1.68204824 4.83968863 2.13743453 7.38196209 3 10 C5.45748398 11.75568004 5.45748398 11.75568004 8 12 C6 13 6 13 3.75 12.5 C0.5717402 11.92213458 -1.85899662 12.34258069 -5 13 C-5 13.66 -5 14.32 -5 15 C-5.7425 15.061875 -6.485 15.12375 -7.25 15.1875 C-10.8185739 16.24185138 -11.92245228 17.99909773 -14 21 C-14.99 20.67 -15.98 20.34 -17 20 C-16.01 19.01 -15.02 18.02 -14 17 C-14.66 16.67 -15.32 16.34 -16 16 C-14.40320196 14.6578508 -12.79729803 13.32652885 -11.1875 12 C-9.84751953 10.88625 -9.84751953 10.88625 -8.48046875 9.75 C-6 8 -6 8 -3 8 C-3 7.34 -3 6.68 -3 6 C-2.01 6 -1.02 6 0 6 C0 4.02 0 2.04 0 0 Z " fill="#FDB7B6" transform="translate(141,13)"/>
<path d="M0 0 C-4.51362244 4.77154373 -8.02288017 7.69354983 -14.5 8.9375 C-17.7845913 9.57165377 -18.93454484 9.94701249 -21.625 12.125 C-24.81334084 14.64211119 -27.04873633 14.30990303 -31 14 C-31 13.34 -31 12.68 -31 12 C-22.79126794 8.24222488 -22.79126794 8.24222488 -18.9375 7.0625 C-15.5282082 5.8293519 -12.7592308 4.09662942 -9.734375 2.12109375 C-6.33223797 -0.07803537 -4.036704 -0.08775443 0 0 Z " fill="#F67785" transform="translate(69,94)"/>
<path d="M0 0 C1.4540625 0.0309375 1.4540625 0.0309375 2.9375 0.0625 C-0.0625 2.0625 -0.0625 2.0625 -2.0625 3.0625 C-2.0625 3.7225 -2.0625 4.3825 -2.0625 5.0625 C1.2375 5.3925 4.5375 5.7225 7.9375 6.0625 C7.9375 7.7125 7.9375 9.3625 7.9375 11.0625 C10.5775 11.3925 13.2175 11.7225 15.9375 12.0625 C13.43948723 14.66912202 11.12752131 15.45388007 7.625 15.8125 C4.43770346 15.72279132 3.24176518 15.32401259 0.796875 13.22265625 C-3.93891009 7.437683 -3.93891009 7.437683 -4.30859375 3.32421875 C-3.92848188 -0.16919031 -3.61424059 0.07376001 0 0 Z " fill="#F4B5AE" transform="translate(39.0625,102.9375)"/>
<path d="M0 0 C0.33 0.99 0.66 1.98 1 3 C-2.82853391 4.72901531 -6.62161416 5.62993867 -10.70703125 6.4921875 C-13.85156362 7.1885916 -16.91395076 8.08075129 -20 9 C-19.375 5.625 -19.375 5.625 -18 2 C-12.77422562 -1.1629687 -5.92530659 -0.17258175 0 0 Z " fill="#EF5B70" transform="translate(80,55)"/>
<path d="M0 0 C0.33 1.32 0.66 2.64 1 4 C-3.1773372 7.91625363 -6.47510362 9.03533555 -12 10 C-14.18359375 9.66796875 -14.18359375 9.66796875 -16 9 C-16.33 8.34 -16.66 7.68 -17 7 C-15.72485508 4.44971017 -14.59658703 4.06918289 -12 3 C-11.01 3 -10.02 3 -9 3 C-9 2.34 -9 1.68 -9 1 C-5.92677456 0.08941469 -3.19902639 -0.08886184 0 0 Z " fill="#FCEBE0" transform="translate(113,82)"/>
<path d="M0 0 C0.33 1.32 0.66 2.64 1 4 C-1.78469002 5.85646001 -3.2681416 6.45157815 -6.4375 7.125 C-7.19933594 7.29257812 -7.96117187 7.46015625 -8.74609375 7.6328125 C-11 8 -11 8 -15 8 C-14.14406569 2.69320727 -14.14406569 2.69320727 -13 0 C-8.31224766 -2.83445491 -4.96890914 -1.78880729 0 0 Z " fill="#E86374" transform="translate(149,26)"/>
<path d="M0 0 C2.31 0.33 4.62 0.66 7 1 C7 2.32 7 3.64 7 5 C7.66 5.33 8.32 5.66 9 6 C7.02 6.33 5.04 6.66 3 7 C3 7.66 3 8.32 3 9 C1.52093108 9.02689216 0.04172517 9.04634621 -1.4375 9.0625 C-2.67306641 9.07990234 -2.67306641 9.07990234 -3.93359375 9.09765625 C-6 9 -6 9 -7 8 C-7.04080783 6.00041636 -7.04254356 3.99954746 -7 2 C-4.69 2.33 -2.38 2.66 0 3 C0 2.01 0 1.02 0 0 Z " fill="#E36570" transform="translate(18,70)"/>
<path d="M0 0 C-1.28813342 0.83878455 -2.58063256 1.67086783 -3.875 2.5 C-4.59429687 2.9640625 -5.31359375 3.428125 -6.0546875 3.90625 C-8 5 -8 5 -10 5 C-10 5.66 -10 6.32 -10 7 C-10.99 7 -11.98 7 -13 7 C-13 7.66 -13 8.32 -13 9 C-12.32453125 8.79503906 -11.6490625 8.59007813 -10.953125 8.37890625 C-10.06109375 8.10949219 -9.1690625 7.84007813 -8.25 7.5625 C-7.36828125 7.29566406 -6.4865625 7.02882813 -5.578125 6.75390625 C-3.39434165 6.11531506 -1.21164502 5.53224167 1 5 C1 4.34 1 3.68 1 3 C1.66 3.33 2.32 3.66 3 4 C1.71613466 6.56773068 0.78034931 6.6737777 -1.859375 7.69140625 C-2.64570312 7.99626953 -3.43203125 8.30113281 -4.2421875 8.61523438 C-5.06976563 8.92783203 -5.89734375 9.24042969 -6.75 9.5625 C-7.56210938 9.87896484 -8.37421875 10.19542969 -9.2109375 10.52148438 C-19.67776505 14.5360412 -19.67776505 14.5360412 -23.3125 13.0625 C-23.869375 12.711875 -24.42625 12.36125 -25 12 C-23.9275 11.7525 -22.855 11.505 -21.75 11.25 C-17.95411278 9.98470426 -16.60376183 8.8930687 -14 6 C-13.34 6 -12.68 6 -12 6 C-11.67 5.01 -11.34 4.02 -11 3 C-9.2578125 1.796875 -9.2578125 1.796875 -7.125 0.75 C-6.42632812 0.39421875 -5.72765625 0.0384375 -5.0078125 -0.328125 C-3 -1 -3 -1 0 0 Z " fill="#FBB7B3" transform="translate(125,68)"/>
<path d="M0 0 C0.33 0.99 0.66 1.98 1 3 C3.01508358 3.73323796 3.01508358 3.73323796 5 4 C4.01 4.33 3.02 4.66 2 5 C2 5.66 2 6.32 2 7 C-2.455 8.485 -2.455 8.485 -7 10 C-7 10.66 -7 11.32 -7 12 C-6.34 12.33 -5.68 12.66 -5 13 C-6 14 -6 14 -7.84765625 14.09765625 C-9.8984375 14.06510417 -11.94921875 14.03255208 -14 14 C-14 12.68 -14 11.36 -14 10 C-13.24074219 9.61328125 -12.48148437 9.2265625 -11.69921875 8.828125 C-10.70535156 8.30734375 -9.71148437 7.7865625 -8.6875 7.25 C-7.70136719 6.73953125 -6.71523437 6.2290625 -5.69921875 5.703125 C-3.04549724 4.02870737 -1.66897803 2.62023855 0 0 Z " fill="#E96A79" transform="translate(83,31)"/>
<path d="M0 0 C0 1.65 0 3.3 0 5 C-10.37357631 9.59225513 -10.37357631 9.59225513 -16 9 C-15.63450574 6.35016664 -15.23871836 5.22166705 -13.25 3.375 C-8.71897502 0.60604029 -5.33187543 -0.24799421 0 0 Z " fill="#E76472" transform="translate(121,13)"/>
<path d="M0 0 C1.32 0.33 2.64 0.66 4 1 C3.01 2.485 3.01 2.485 2 4 C1.7525 4.94875 1.505 5.8975 1.25 6.875 C-0.40083908 11.0020977 -2.45957237 12.38316219 -6 15 C-8.475 14.01 -8.475 14.01 -11 13 C-8.61426621 11.10786631 -6.92824652 9.97608217 -4 9 C-3.67 7.35 -3.34 5.7 -3 4 C-4.98 4 -6.96 4 -9 4 C-8.67 3.34 -8.34 2.68 -8 2 C-5.36 2 -2.72 2 0 2 C0 1.34 0 0.68 0 0 Z " fill="#F9CEC9" transform="translate(124,9)"/>
<path d="M0 0 C2.64 0 5.28 0 8 0 C8 1.32 8 2.64 8 4 C9.98 4 11.96 4 14 4 C14.33 5.32 14.66 6.64 15 8 C8.54487966 8.56131481 3.84560277 6.63463787 -2 4 C-1.34 2.68 -0.68 1.36 0 0 Z " fill="#EA5A68" transform="translate(19,55)"/>
<path d="M0 0 C-8.44827586 7 -8.44827586 7 -14 7 C-14.185625 8.2065625 -14.185625 8.2065625 -14.375 9.4375 C-14.58125 10.283125 -14.7875 11.12875 -15 12 C-15.99 12.495 -15.99 12.495 -17 13 C-17 11.35 -17 9.7 -17 8 C-17.66 8 -18.32 8 -19 8 C-18.79296875 6.1015625 -18.79296875 6.1015625 -18 4 C-15.92578125 3.0234375 -15.92578125 3.0234375 -13.3125 2.375 C-11.96091797 2.02308594 -11.96091797 2.02308594 -10.58203125 1.6640625 C-9.72996094 1.44492187 -8.87789062 1.22578125 -8 1 C-6.845 0.5875 -5.69 0.175 -4.5 -0.25 C-2 -1 -2 -1 0 0 Z " fill="#FBDCD2" transform="translate(129,30)"/>
<path d="M0 0 C0 0.66 0 1.32 0 2 C0.66 2 1.32 2 2 2 C2 4.64 2 7.28 2 10 C1.01 10.495 1.01 10.495 0 11 C0.33 8.69 0.66 6.38 1 4 C-2.75456551 5.5018262 -5.83754187 6.88850912 -9.1875 9.1875 C-12 11 -12 11 -16 11 C-15.34 9.68 -14.68 8.36 -14 7 C-13.34 7 -12.68 7 -12 7 C-12 6.34 -12 5.68 -12 5 C-10.37750059 4.16180842 -8.75191503 3.3295884 -7.125 2.5 C-6.22007813 2.0359375 -5.31515625 1.571875 -4.3828125 1.09375 C-2 0 -2 0 0 0 Z " fill="#F9B9B7" transform="translate(110,36)"/>
<path d="M0 0 C0.99773438 0.02320313 1.99546875 0.04640625 3.0234375 0.0703125 C4.52777344 0.09738281 4.52777344 0.09738281 6.0625 0.125 C6.83335938 0.14820313 7.60421875 0.17140625 8.3984375 0.1953125 C8.3984375 1.5153125 8.3984375 2.8353125 8.3984375 4.1953125 C9.3265625 3.9890625 10.2546875 3.7828125 11.2109375 3.5703125 C14.3984375 3.1953125 14.3984375 3.1953125 17.3984375 5.1953125 C16.828125 7.578125 16.828125 7.578125 15.3984375 10.1953125 C12.28125 11.375 12.28125 11.375 8.5234375 12.0703125 C7.28851563 12.31523438 6.05359375 12.56015625 4.78125 12.8125 C1.84115344 13.14521301 0.12742777 13.19639938 -2.6015625 12.1953125 C2.9507263 9.3601012 7.19956265 8.81578955 13.3984375 9.1953125 C13.0684375 8.2053125 12.7384375 7.2153125 12.3984375 6.1953125 C9.4284375 5.7003125 9.4284375 5.7003125 6.3984375 5.1953125 C6.3984375 3.8753125 6.3984375 2.5553125 6.3984375 1.1953125 C5.1403125 1.3603125 3.8821875 1.5253125 2.5859375 1.6953125 C0.13387165 2.01689491 -2.11806944 2.1953125 -4.6015625 2.1953125 C-2.6015625 0.1953125 -2.6015625 0.1953125 0 0 Z " fill="#F2969D" transform="translate(20.6015625,53.8046875)"/>
<path d="M0 0 C1.2065625 0.0309375 1.2065625 0.0309375 2.4375 0.0625 C-0.28348782 1.49362904 -2.94409731 2.57856168 -5.875 3.5 C-8.76891886 4.42984934 -11.50140202 5.45510495 -14.25 6.75 C-17.64025661 8.09330922 -19.95702953 8.32631491 -23.5625 8.0625 C-23.5625 8.7225 -23.5625 9.3825 -23.5625 10.0625 C-25.0187545 10.73369549 -26.47757867 11.39931807 -27.9375 12.0625 C-29.15566406 12.619375 -29.15566406 12.619375 -30.3984375 13.1875 C-32.5625 14.0625 -32.5625 14.0625 -34.5625 14.0625 C-34.5625 13.4025 -34.5625 12.7425 -34.5625 12.0625 C-31.5925 11.0725 -28.6225 10.0825 -25.5625 9.0625 C-25.5625 8.4025 -25.5625 7.7425 -25.5625 7.0625 C-24.79164062 6.86914062 -24.02078125 6.67578125 -23.2265625 6.4765625 C-22.22367188 6.21617188 -21.22078125 5.95578125 -20.1875 5.6875 C-18.69089844 5.30464844 -18.69089844 5.30464844 -17.1640625 4.9140625 C-14.43708985 4.23845681 -14.43708985 4.23845681 -12.5625 2.0625 C-10.43359375 1.68359375 -10.43359375 1.68359375 -8 1.5 C-4.88648624 1.25590052 -2.90733777 0.07091068 0 0 Z " fill="#FACCBF" transform="translate(93.5625,81.9375)"/>
<path d="M0 0 C0.33 0.66 0.66 1.32 1 2 C6.445 1.505 6.445 1.505 12 1 C12 1.66 12 2.32 12 3 C0.47835991 7.77676538 0.47835991 7.77676538 -5 6 C-5.33 4.68 -5.66 3.36 -6 2 C-4.02 1.34 -2.04 0.68 0 0 Z " fill="#FBDFD7" transform="translate(79,47)"/>
<path d="M0 0 C0 1.65 0 3.3 0 5 C0.66 5.33 1.32 5.66 2 6 C1.01 6 0.02 6 -1 6 C-1 5.34 -1 4.68 -1 4 C-2.97536745 4.34786708 -2.97536745 4.34786708 -5 5 C-5.33 5.66 -5.66 6.32 -6 7 C-4.68 7 -3.36 7 -2 7 C-2 7.66 -2 8.32 -2 9 C-6.08718695 9.24042276 -9.17679443 8.42258812 -13 7 C-13 6.01 -13 5.02 -13 4 C-11.39850114 3.32694982 -9.79368971 2.66177773 -8.1875 2 C-7.29417969 1.62875 -6.40085937 1.2575 -5.48046875 0.875 C-3 0 -3 0 0 0 Z " fill="#F36476" transform="translate(57,59)"/>
<path d="M0 0 C-1.58199631 0.64910154 -3.16565724 1.29414694 -4.75 1.9375 C-5.63171875 2.29714844 -6.5134375 2.65679687 -7.421875 3.02734375 C-9.61186104 3.85356576 -11.71898271 4.49369943 -14 5 C-14 5.66 -14 6.32 -14 7 C-17.36683915 9.43160605 -18.73350364 10 -23 10 C-23 10.99 -23 11.98 -23 13 C-24.32 13.33 -25.64 13.66 -27 14 C-26.67 13.34 -26.34 12.68 -26 12 C-25.34 12 -24.68 12 -24 12 C-24 11.01 -24 10.02 -24 9 C-24.66 9 -25.32 9 -26 9 C-26 8.34 -26 7.68 -26 7 C-23.69 7 -21.38 7 -19 7 C-18.34 5.68 -17.68 4.36 -17 3 C-15.68 3 -14.36 3 -13 3 C-12.67 2.34 -12.34 1.68 -12 1 C-11.01 1.33 -10.02 1.66 -9 2 C-9 1.34 -9 0.68 -9 0 C-2.25 -1.125 -2.25 -1.125 0 0 Z " fill="#F7C8C9" transform="translate(58,44)"/>
<path d="M0 0 C0.66 0.33 1.32 0.66 2 1 C2 1.66 2 2.32 2 3 C6.00254456 3.09181134 6.00254456 3.09181134 10 3 C10.33 2.67 10.66 2.34 11 2 C12.66617115 1.95936168 14.33388095 1.957279 16 2 C16 2.66 16 3.32 16 4 C15.34 4 14.68 4 14 4 C14 4.99 14 5.98 14 7 C15.98 7 17.96 7 20 7 C20 7.33 20 7.66 20 8 C17.69 8 15.38 8 13 8 C12.67 7.34 12.34 6.68 12 6 C9.1840151 5.53101037 9.1840151 5.53101037 5.9375 5.375 C4.28041016 5.26285156 4.28041016 5.26285156 2.58984375 5.1484375 C1.73519531 5.09945312 0.88054687 5.05046875 0 5 C-0.268125 5.639375 -0.53625 6.27875 -0.8125 6.9375 C-2 9 -2 9 -5 10 C-5 9.34 -5 8.68 -5 8 C-4.34 7.67 -3.68 7.34 -3 7 C-2.34786708 4.97536745 -2.34786708 4.97536745 -2 3 C-4.31 3 -6.62 3 -9 3 C-9 2.67 -9 2.34 -9 2 C-6.94921875 1.77213542 -4.8984375 1.54427083 -2.84765625 1.31640625 C-0.98859771 1.18113386 -0.98859771 1.18113386 0 0 Z " fill="#F8BFBA" transform="translate(67,41)"/>
<path d="M0 0 C-2.91383311 1.94255541 -5.87263562 3.43631781 -9 5 C-9.33 5.33 -9.66 5.66 -10 6 C-12.35313555 6.07271741 -14.70833668 6.08370868 -17.0625 6.0625 C-18.35285156 6.05347656 -19.64320312 6.04445313 -20.97265625 6.03515625 C-21.97167969 6.02355469 -22.97070312 6.01195312 -24 6 C-24 4.68 -24 3.36 -24 2 C-23.34 2 -22.68 2 -22 2 C-22 2.66 -22 3.32 -22 4 C-18.7 3.67 -15.4 3.34 -12 3 C-13.32 2.34 -14.64 1.68 -16 1 C-10.65097076 0.40801257 -5.39115154 -0.14187241 0 0 Z " fill="#F07A82" transform="translate(59,52)"/>
<path d="M0 0 C2.79094197 0.01070694 5.52638532 0.12804924 8.3046875 0.38671875 C5.58832495 3.2324319 3.17904643 5.10766803 -0.6328125 6.32421875 C-3.69949895 7.19897629 -3.69949895 7.19897629 -5.8203125 9.07421875 C-7.6953125 10.38671875 -7.6953125 10.38671875 -9.9453125 10.07421875 C-10.5228125 9.84734375 -11.1003125 9.62046875 -11.6953125 9.38671875 C-10.9528125 9.01546875 -10.2103125 8.64421875 -9.4453125 8.26171875 C-6.4545822 6.54501194 -6.4545822 6.54501194 -5.0703125 3.19921875 C-2.6953125 0.38671875 -2.6953125 0.38671875 0 0 Z " fill="#FCEADC" transform="translate(116.6953125,43.61328125)"/>
<path d="M0 0 C1.2065625 0.0309375 1.2065625 0.0309375 2.4375 0.0625 C1.13272778 3.97681665 -0.54923306 4.64062588 -4 6.8125 C-4.98871094 7.44671875 -5.97742188 8.0809375 -6.99609375 8.734375 C-7.84300781 9.17265625 -8.68992188 9.6109375 -9.5625 10.0625 C-10.2225 9.7325 -10.8825 9.4025 -11.5625 9.0625 C-11.2325 8.0725 -10.9025 7.0825 -10.5625 6.0625 C-11.67625 6.743125 -12.79 7.42375 -13.9375 8.125 C-15.8359375 9.28515625 -15.8359375 9.28515625 -17.5625 10.0625 C-18.2225 9.7325 -18.8825 9.4025 -19.5625 9.0625 C-9.49579432 2.73599327 -9.49579432 2.73599327 -3.5625 1.0625 C-2.5625 0.0625 -2.5625 0.0625 0 0 Z " fill="#F99EA1" transform="translate(140.5625,60.9375)"/>
<path d="M0 0 C4.29 0 8.58 0 13 0 C13 0.66 13 1.32 13 2 C12.21753906 2.34933594 11.43507813 2.69867188 10.62890625 3.05859375 C9.61699219 3.51363281 8.60507812 3.96867187 7.5625 4.4375 C6.55316406 4.88996094 5.54382813 5.34242187 4.50390625 5.80859375 C2.1139529 6.77448202 2.1139529 6.77448202 1 8 C-0.99958364 8.04080783 -3.00045254 8.04254356 -5 8 C-4.67 7.34 -4.34 6.68 -4 6 C-3.360625 5.87625 -2.72125 5.7525 -2.0625 5.625 C0.19851273 5.19060573 0.19851273 5.19060573 1.25 2.9375 C1.4975 2.298125 1.745 1.65875 2 1 C1.34 0.67 0.68 0.34 0 0 Z " fill="#FBE6DC" transform="translate(37,59)"/>
<path d="M0 0 C1.32 0.33 2.64 0.66 4 1 C4 2.32 4 3.64 4 5 C4.639375 5.103125 5.27875 5.20625 5.9375 5.3125 C6.618125 5.539375 7.29875 5.76625 8 6 C9 9 9 9 8 11.3125 C5.42274934 14.77568057 2.36146513 17.32003739 -1 20 C-1.66 19.67 -2.32 19.34 -3 19 C-1.37660195 17.29115995 0.29319053 15.62553283 2 14 C2.66 14 3.32 14 4 14 C4 13.34 4 12.68 4 12 C4.66 11.67 5.32 11.34 6 11 C6.65213292 8.97536745 6.65213292 8.97536745 7 7 C3.87802522 8.3089572 3.87802522 8.3089572 2 11 C1.34 11 0.68 11 0 11 C0.08378906 10.37351562 0.16757813 9.74703125 0.25390625 9.1015625 C0.35574219 8.28429688 0.45757812 7.46703125 0.5625 6.625 C0.66691406 5.81289063 0.77132812 5.00078125 0.87890625 4.1640625 C1.18237328 1.95100814 1.18237328 1.95100814 0 0 Z " fill="#FCEAE2" transform="translate(155,44)"/>
<path d="M0 0 C0 0.66 0 1.32 0 2 C-0.99 2 -1.98 2 -3 2 C-2.67 2.66 -2.34 3.32 -2 4 C-1.34 4 -0.68 4 0 4 C0 4.99 0 5.98 0 7 C-5.37305699 7.96891192 -5.37305699 7.96891192 -8 8 C-10 6.5625 -10 6.5625 -11 5 C-9.07089686 -0.78730941 -5.38986894 -0.20339128 0 0 Z " fill="#F95A6B" transform="translate(36,70)"/>
<path d="M0 0 C-0.33 2.31 -0.66 4.62 -1 7 C-1.99 7 -2.98 7 -4 7 C-4 7.66 -4 8.32 -4 9 C-5.65 8.67 -7.3 8.34 -9 8 C-9.33 6.35 -9.66 4.7 -10 3 C-9.34 3 -8.68 3 -8 3 C-8 2.34 -8 1.68 -8 1 C-2.25 0 -2.25 0 0 0 Z " fill="#E04052" transform="translate(100,24)"/>
<path d="M0 0 C0 0.99 0 1.98 0 3 C-0.66 3 -1.32 3 -2 3 C-2.33 4.32 -2.66 5.64 -3 7 C-4.65 7.33 -6.3 7.66 -8 8 C-10 5 -10 5 -10 1 C-6.78548731 -0.60725635 -3.56387464 -0.05748185 0 0 Z " fill="#E54855" transform="translate(139,10)"/>
<path d="M0 0 C1.32 0 2.64 0 4 0 C3.875 3.3125 3.875 3.3125 3 7 C0.125 9 0.125 9 -3 10 C-3.99 9.67 -4.98 9.34 -6 9 C-5.34 7.35 -4.68 5.7 -4 4 C-3.34 4 -2.68 4 -2 4 C-1.34 2.68 -0.68 1.36 0 0 Z " fill="#F4586F" transform="translate(107,40)"/>
<path d="M0 0 C0.66 0.33 1.32 0.66 2 1 C-4.42341673 6.81166276 -9.38351102 8.29712031 -18 8 C-18.33 6.68 -18.66 5.36 -19 4 C-19.99 4 -20.98 4 -22 4 C-22.33 4.66 -22.66 5.32 -23 6 C-23 5.34 -23 4.68 -23 4 C-23.66 3.67 -24.32 3.34 -25 3 C-22.36 3 -19.72 3 -17 3 C-17 3.99 -17 4.98 -17 6 C-11.03984151 5.7402981 -7.49892387 5.23428129 -3 1 C-2.01 0.67 -1.02 0.34 0 0 Z " fill="#FBA8AA" transform="translate(44,73)"/>
<path d="M0 0 C1.65 0 3.3 0 5 0 C4.49396008 2.16874252 4.00016187 3.99967627 3 6 C4.32 6.33 5.64 6.66 7 7 C2.04182722 10.15520086 -3.19689888 12.83937978 -9 14 C-8 11 -8 11 -6.1875 9.97265625 C-4.7300886 9.36626901 -3.27175304 8.76209813 -1.8125 8.16015625 C0.19766672 7.13548124 0.19766672 7.13548124 0.75 4.87109375 C0.8325 4.25363281 0.915 3.63617187 1 3 C0.34 3 -0.32 3 -1 3 C-0.67 2.01 -0.34 1.02 0 0 Z " fill="#F77F8A" transform="translate(131,28)"/>
<path d="M0 0 C0 3 0 3 -1 6 C-1.66 6 -2.32 6 -3 6 C-3 7.32 -3 8.64 -3 10 C-1.02 10 0.96 10 3 10 C1.68 10.33 0.36 10.66 -1 11 C-1 11.99 -1 12.98 -1 14 C0.32 13.67 1.64 13.34 3 13 C3 13.99 3 14.98 3 16 C0.69 15.67 -1.62 15.34 -4 15 C-4 16.65 -4 18.3 -4 20 C-4.33 20 -4.66 20 -5 20 C-5.86140345 6.02612175 -5.86140345 6.02612175 -2.5 2.125 C-1.2625 1.073125 -1.2625 1.073125 0 0 Z " fill="#F4AAAE" transform="translate(15,57)"/>
<path d="M0 0 C0 0.66 0 1.32 0 2 C-1.97176245 3.42952778 -3.93388707 4.71953085 -6 6 C-6.69609375 6.45246094 -7.3921875 6.90492187 -8.109375 7.37109375 C-13.74291785 11 -13.74291785 11 -16 11 C-15.34 9.68 -14.68 8.36 -14 7 C-13.34 7 -12.68 7 -12 7 C-11.67 6.01 -11.34 5.02 -11 4 C-4.94285714 0 -4.94285714 0 0 0 Z " fill="#FDD0CC" transform="translate(142,34)"/>
<path d="M0 0 C1.32 0 2.64 0 4 0 C4 5.61 4 11.22 4 17 C3.01 16.34 2.02 15.68 1 15 C1.33 12.69 1.66 10.38 2 8 C0.35 8 -1.3 8 -3 8 C-2.34 6.68 -1.68 5.36 -1 4 C-0.34 4 0.32 4 1 4 C0.67 2.68 0.34 1.36 0 0 Z " fill="#F8D9DC" transform="translate(149,26)"/>
<path d="M0 0 C-0.99 0.495 -0.99 0.495 -2 1 C-1.34 1.66 -0.68 2.32 0 3 C-2.64 3.33 -5.28 3.66 -8 4 C-6.68 4.66 -5.36 5.32 -4 6 C-7.67410785 7.17571451 -11.16929183 7.07366746 -15 7 C-15 6.34 -15 5.68 -15 5 C-12.4385343 2.70351351 -11.52032428 2 -8 2 C-8 1.34 -8 0.68 -8 0 C-4.71303767 -0.79953138 -3.28976808 -1.09658936 0 0 Z " fill="#E45567" transform="translate(52,49)"/>
<path d="M0 0 C0 0.66 0 1.32 0 2 C-1.32 2 -2.64 2 -4 2 C-4.185625 2.639375 -4.37125 3.27875 -4.5625 3.9375 C-5.036875 4.618125 -5.51125 5.29875 -6 6 C-8.32622311 6.37979153 -10.66175408 6.70307988 -13 7 C-15.41943826 7.98833262 -17.74407234 9.09084506 -20.08203125 10.2578125 C-20.71496094 10.50273438 -21.34789063 10.74765625 -22 11 C-22.66 10.67 -23.32 10.34 -24 10 C-21.20337605 7.74217516 -18.60285528 6.28134597 -15.25 5 C-14.37859375 4.66484375 -13.5071875 4.3296875 -12.609375 3.984375 C-11.74828125 3.65953125 -10.8871875 3.3346875 -10 3 C-9.22140625 2.69578125 -8.4428125 2.3915625 -7.640625 2.078125 C-2.26886792 0 -2.26886792 0 0 0 Z " fill="#FCD3CB" transform="translate(89,89)"/>
<path d="M0 0 C0.66 0.33 1.32 0.66 2 1 C2 1.66 2 2.32 2 3 C1.01 3.495 1.01 3.495 0 4 C0.99 4.33 1.98 4.66 3 5 C3 4.34 3 3.68 3 3 C5.64 2.67 8.28 2.34 11 2 C10 4 10 4 7.3125 4.9375 C5.6728125 5.4634375 5.6728125 5.4634375 4 6 C2.9275 6.556875 1.855 7.11375 0.75 7.6875 C-0.1575 8.120625 -1.065 8.55375 -2 9 C-2.66 8.67 -3.32 8.34 -4 8 C-3.67 7.34 -3.34 6.68 -3 6 C-4.65 6.66 -6.3 7.32 -8 8 C-7.04578192 6.85073734 -6.08647955 5.70569459 -5.125 4.5625 C-4.59132813 3.92441406 -4.05765625 3.28632812 -3.5078125 2.62890625 C-2 1 -2 1 0 0 Z " fill="#F67986" transform="translate(106,30)"/>
<path d="M0 0 C-3.33985299 3.33985299 -6.48274709 3.44506753 -10.9765625 3.69140625 C-13.22479439 3.82985025 -13.22479439 3.82985025 -15 6 C-17.8203125 6.4140625 -17.8203125 6.4140625 -21.125 6.625 C-22.22070312 6.69976562 -23.31640625 6.77453125 -24.4453125 6.8515625 C-25.28835937 6.90054688 -26.13140625 6.94953125 -27 7 C-27.33 6.34 -27.66 5.68 -28 5 C-24.27271829 4.15808127 -20.54289997 3.3279832 -16.8125 2.5 C-15.75740234 2.26152344 -14.70230469 2.02304688 -13.61523438 1.77734375 C-12.08286133 1.43896484 -12.08286133 1.43896484 -10.51953125 1.09375 C-9.11344604 0.77954102 -9.11344604 0.77954102 -7.67895508 0.45898438 C-5.06028801 0.01032912 -2.65060917 -0.08407959 0 0 Z " fill="#FCD7CC" transform="translate(55,96)"/>
<path d="M0 0 C2.35694954 0.09031574 4.71153582 0.24688128 7.0625 0.4375 C8.35285156 0.53933594 9.64320312 0.64117187 10.97265625 0.74609375 C12.47119141 0.87177734 12.47119141 0.87177734 14 1 C10.93138727 2.66066101 7.92435277 3.70177275 4.5625 4.625 C3.63566406 4.88539062 2.70882812 5.14578125 1.75390625 5.4140625 C-0.92391659 5.98381204 -3.27258425 6.10889863 -6 6 C-5.67 5.34 -5.34 4.68 -5 4 C-3.35 4 -1.7 4 0 4 C-0.33 3.01 -0.66 2.02 -1 1 C-0.67 0.67 -0.34 0.34 0 0 Z " fill="#FCB8BB" transform="translate(30,84)"/>
<path d="M0 0 C0.99 0 1.98 0 3 0 C2.67 1.65 2.34 3.3 2 5 C1.34 5 0.68 5 0 5 C0 5.66 0 6.32 0 7 C-2.5 8.625 -2.5 8.625 -5 10 C-5 9.01 -5 8.02 -5 7 C-6.32 6.67 -7.64 6.34 -9 6 C-8.01 5.34 -7.02 4.68 -6 4 C-5.34 3.01 -4.68 2.02 -4 1 C-4 1.99 -4 2.98 -4 4 C-3.34 4 -2.68 4 -2 4 C-1.34 2.68 -0.68 1.36 0 0 Z " fill="#F9D7CE" transform="translate(159,51)"/>
<path d="M0 0 C1.60294922 0.01353516 1.60294922 0.01353516 3.23828125 0.02734375 C4.04652344 0.03894531 4.85476562 0.05054688 5.6875 0.0625 C6.0175 1.0525 6.3475 2.0425 6.6875 3.0625 C3.31652617 4.56071059 1.48307881 5.0625 -2.3125 5.0625 C-2.3125 4.0725 -2.3125 3.0825 -2.3125 2.0625 C-5.2825 2.0625 -8.2525 2.0625 -11.3125 2.0625 C-11.3125 1.7325 -11.3125 1.4025 -11.3125 1.0625 C-7.47525828 0.15836327 -3.93747726 -0.04326898 0 0 Z " fill="#F06877" transform="translate(74.3125,54.9375)"/>
<path d="M0 0 C-1 2 -1 2 -2.85546875 2.74609375 C-3.62503906 2.97425781 -4.39460938 3.20242187 -5.1875 3.4375 C-8.11449914 4.34812195 -10.5589562 5.28475127 -13.3125 6.6875 C-16 8 -16 8 -20 8 C-20 7.34 -20 6.68 -20 6 C-18.9275 5.566875 -17.855 5.13375 -16.75 4.6875 C-14.44577846 3.72358262 -13.0012548 3.00112932 -11.125 1.3125 C-7.67471922 -0.81855577 -3.95213923 -0.22800803 0 0 Z " fill="#F9C5C3" transform="translate(94,70)"/>
<path d="M0 0 C-2.20278408 2.2841369 -4.03357002 3.79488782 -7 5 C-7.99 5 -8.98 5 -10 5 C-10 5.66 -10 6.32 -10 7 C-13 9 -13 9 -15.1875 8.625 C-15.785625 8.41875 -16.38375 8.2125 -17 8 C-15.02 7.34 -13.04 6.68 -11 6 C-11 5.01 -11 4.02 -11 3 C-11.99 2.34 -12.98 1.68 -14 1 C-9.32798795 -0.20568053 -4.78503708 -0.09382426 0 0 Z " fill="#FBD6CF" transform="translate(81,61)"/>
<path d="M0 0 C0 3.83617123 -0.26759763 7.53519527 -2 11 C-4.475 10.01 -4.475 10.01 -7 9 C-7 7.35 -7 5.7 -7 4 C-4.69 2.68 -2.38 1.36 0 0 Z " fill="#E86471" transform="translate(91,25)"/>
<path d="M0 0 C-0.375 1.9375 -0.375 1.9375 -1 4 C-3.70879335 5.35439668 -6.00933268 5.06501451 -9 5 C-9 5.66 -9 6.32 -9 7 C-10.32 6.67 -11.64 6.34 -13 6 C-5.46629213 -1.95224719 -5.46629213 -1.95224719 0 0 Z " fill="#EC5864" transform="translate(118,28)"/>
<path d="M0 0 C0 0.66 0 1.32 0 2 C1.65 2 3.3 2 5 2 C4.67 4.31 4.34 6.62 4 9 C3.67 9 3.34 9 3 9 C3 7.35 3 5.7 3 4 C1.02 4 -0.96 4 -3 4 C-3 6.31 -3 8.62 -3 11 C-3.66 11 -4.32 11 -5 11 C-4.67 8.03 -4.34 5.06 -4 2 C-5.32 1.67 -6.64 1.34 -8 1 C-5.29120665 -0.35439668 -2.99066732 -0.06501451 0 0 Z " fill="#F39DA5" transform="translate(146,32)"/>
<path d="M0 0 C0.33 0 0.66 0 1 0 C1.08636719 0.69867188 1.17273438 1.39734375 1.26171875 2.1171875 C1.68204824 4.83968863 2.13743453 7.38196209 3 10 C5.45748398 11.75568004 5.45748398 11.75568004 8 12 C6 13 6 13 3.6875 12.5 C0.78151461 11.95935156 -1.16243077 12.27033934 -4 13 C-3.67 10.69 -3.34 8.38 -3 6 C-2.01 6 -1.02 6 0 6 C0 4.02 0 2.04 0 0 Z " fill="#F398A0" transform="translate(141,13)"/>
<path d="M0 0 C0.66 0 1.32 0 2 0 C2.33 0.33 2.66 0.66 3 1 C4.32594105 1.36162029 5.65938457 1.69728039 7 2 C0.92560175 7.05908096 0.92560175 7.05908096 -2.9375 6.8125 C-3.618125 6.544375 -4.29875 6.27625 -5 6 C-5 5.34 -5 4.68 -5 4 C-5.99 3.67 -6.98 3.34 -8 3 C-6.68 2.34 -5.36 1.68 -4 1 C-4 1.66 -4 2.32 -4 3 C-3.01 2.67 -2.02 2.34 -1 2 C-0.67 1.34 -0.34 0.68 0 0 Z " fill="#EF5C6C" transform="translate(127,21)"/>
<path d="M0 0 C0 0.66 0 1.32 0 2 C-1.65 2 -3.3 2 -5 2 C-5 2.7425 -5 3.485 -5 4.25 C-5 11 -5 11 -6.75 12.8125 C-9 14 -9 14 -11.25 13.6875 C-11.8275 13.460625 -12.405 13.23375 -13 13 C-12.401875 12.505 -11.80375 12.01 -11.1875 11.5 C-8.70087786 8.65814612 -7.91625921 6.28857705 -6.90625 2.70703125 C-6 1 -6 1 -4.03125 0.26171875 C-2 0 -2 0 0 0 Z " fill="#FAC2BB" transform="translate(108,23)"/>
<path d="M0 0 C0.66 0.66 1.32 1.32 2 2 C2.66 1.67 3.32 1.34 4 1 C3.67 2.32 3.34 3.64 3 5 C5.31 4.34 7.62 3.68 10 3 C8.52436775 5.9512645 6.49920648 6.06923915 3.4375 7.125 C2.42558594 7.47820312 1.41367187 7.83140625 0.37109375 8.1953125 C-0.41136719 8.46085937 -1.19382812 8.72640625 -2 9 C-2 8.34 -2 7.68 -2 7 C-3.32 7 -4.64 7 -6 7 C-5.67 6.01 -5.34 5.02 -5 4 C-3.68 4 -2.36 4 -1 4 C-0.67 4.33 -0.34 4.66 0 5 C0 3.35 0 1.7 0 0 Z " fill="#F88690" transform="translate(57,59)"/>
<path d="M0 0 C2 2 4 4 6 6 C11.95658462 6.43634266 17.44276587 6.40312827 23 4 C20.74276223 6.73738371 19.43415452 7.89354065 15.94140625 8.75 C14.82636719 8.8325 13.71132813 8.915 12.5625 9 C11.45003906 9.103125 10.33757813 9.20625 9.19140625 9.3125 C5.26212141 8.92774751 3.74171857 7.78174366 1 5 C0.1875 2.25 0.1875 2.25 0 0 Z " fill="#FBE1DE" transform="translate(36,111)"/>
<path d="M0 0 C1.79244141 0.01740234 1.79244141 0.01740234 3.62109375 0.03515625 C5.41740234 0.04869141 5.41740234 0.04869141 7.25 0.0625 C8.17683594 0.07410156 9.10367188 0.08570313 10.05859375 0.09765625 C10.05859375 0.42765625 10.05859375 0.75765625 10.05859375 1.09765625 C5.76859375 1.75765625 1.47859375 2.41765625 -2.94140625 3.09765625 C-3.27140625 4.08765625 -3.60140625 5.07765625 -3.94140625 6.09765625 C-6.00390625 7.28515625 -6.00390625 7.28515625 -7.94140625 8.09765625 C-7.94140625 7.10765625 -7.94140625 6.11765625 -7.94140625 5.09765625 C-9.26140625 4.76765625 -10.58140625 4.43765625 -11.94140625 4.09765625 C-11.37550781 3.89269531 -10.80960938 3.68773437 -10.2265625 3.4765625 C-9.49308594 3.20714844 -8.75960937 2.93773437 -8.00390625 2.66015625 C-7.27300781 2.39332031 -6.54210938 2.12648437 -5.7890625 1.8515625 C-1.36212773 0.04522336 -1.36212773 0.04522336 0 0 Z " fill="#F6ACAD" transform="translate(65.94140625,53.90234375)"/>
<path d="M0 0 C-1.37858851 2.75717702 -3.37466315 3.46321746 -6 5 C-6.66 5.66 -7.32 6.32 -8 7 C-10.65537372 7.56520003 -13.29144713 7.73788198 -16 8 C-12.59491053 4.04570255 -5.45732508 -2.72866254 0 0 Z " fill="#FAD2CC" transform="translate(124,47)"/>
<path d="M0 0 C-2 1 -4 2 -6 3 C-7.051875 3.556875 -8.10375 4.11375 -9.1875 4.6875 C-12 6 -12 6 -15 6 C-15.33 4.35 -15.66 2.7 -16 1 C-14.95199219 0.90912109 -14.95199219 0.90912109 -13.8828125 0.81640625 C-12.97273438 0.73261719 -12.06265625 0.64882812 -11.125 0.5625 C-10.22007813 0.48128906 -9.31515625 0.40007813 -8.3828125 0.31640625 C-1.84090909 -0.55227273 -1.84090909 -0.55227273 0 0 Z " fill="#F6E1DE" transform="translate(115,14)"/>
<path d="M0 0 C0.66 0 1.32 0 2 0 C1.25 2.4375 1.25 2.4375 0 5 C-2.125 5.8125 -2.125 5.8125 -4 6 C-0.37471432 6.20140476 1.86501708 5.85776765 5 4 C5 4.99 5 5.98 5 7 C2.24921116 7.91692961 0.64051087 8.10886083 -2.1875 8.0625 C-4.0746875 8.0315625 -4.0746875 8.0315625 -6 8 C-6 7.34 -6 6.68 -6 6 C-7.98 6 -9.96 6 -12 6 C-8.46588679 3.87953208 -5.05606165 3.46800711 -1 3 C-0.67 2.01 -0.34 1.02 0 0 Z " fill="#F3D4CA" transform="translate(37,60)"/>
<path d="M0 0 C0.66 0 1.32 0 2 0 C0.63356852 3.98542514 -1.10109014 6.92539863 -4 10 C-4.99 10 -5.98 10 -7 10 C-6.67 7.69 -6.34 5.38 -6 3 C-4.02 3 -2.04 3 0 3 C0 2.01 0 1.02 0 0 Z " fill="#F0EBE9" transform="translate(83,27)"/>
<path d="M0 0 C2.31 0 4.62 0 7 0 C7 1.65 7 3.3 7 5 C4.03 4.67 1.06 4.34 -2 4 C-1.34 2.68 -0.68 1.36 0 0 Z " fill="#E24256" transform="translate(19,55)"/>
<path d="M0 0 C-2.05295434 3.07943151 -2.65734795 3.79293121 -6 5 C-9.25 5.125 -9.25 5.125 -12 5 C-12 4.01 -12 3.02 -12 2 C-10.35 2 -8.7 2 -7 2 C-7 1.34 -7 0.68 -7 0 C-3.86650268 -1.04449911 -3.01031744 -0.93423645 0 0 Z " fill="#EE3D56" transform="translate(117,17)"/>
<path d="M0 0 C2.5 2.25 2.5 2.25 5 5 C5 9.26826873 4.62386487 9.93882432 2 13 C1.01 12.67 0.02 12.34 -1 12 C-1.6875 9.9375 -1.6875 9.9375 -2 8 C-0.35 8 1.3 8 3 8 C2.505 7.05125 2.01 6.1025 1.5 5.125 C0 2 0 2 0 0 Z " fill="#F17686" transform="translate(150,41)"/>
<path d="M0 0 C0.66 0.33 1.32 0.66 2 1 C-0.36292656 3.52588702 -1.66462511 4.88820837 -5 6 C-5.33 6.66 -5.66 7.32 -6 8 C-8.21484375 9.10546875 -8.21484375 9.10546875 -10.9375 10.1875 C-12.28134766 10.73470703 -12.28134766 10.73470703 -13.65234375 11.29296875 C-16 12 -16 12 -18 11 C-13.59407019 7.86947093 -9.05217132 5.47027545 -4.171875 3.1484375 C-1.8728077 2.06918092 -1.8728077 2.06918092 0 0 Z " fill="#F99EAB" transform="translate(65,97)"/>
<path d="M0 0 C0.99 0 1.98 0 3 0 C3.33 0.99 3.66 1.98 4 3 C8.51617599 3.07654536 12.59085217 3.10228696 17 2 C17.33 2.99 17.66 3.98 18 5 C12.06 5 6.12 5 0 5 C0 3.35 0 1.7 0 0 Z " fill="#FED4D0" transform="translate(22,77)"/>
<path d="M0 0 C4.29 0 8.58 0 13 0 C13 0.33 13 0.66 13 1 C11.02 1.33 9.04 1.66 7 2 C7 2.66 7 3.32 7 4 C4.03 4 1.06 4 -2 4 C-2.33 3.34 -2.66 2.68 -3 2 C-2.01 2 -1.02 2 0 2 C0 1.34 0 0.68 0 0 Z " fill="#EB7981" transform="translate(14,75)"/>
<path d="M0 0 C-0.625 1.875 -0.625 1.875 -2 4 C-5.75263725 5.66783878 -8.91226018 6.24045528 -13 6 C-10.78511966 2.67767949 -10.13888343 2.4289756 -6.5 1.3125 C-5.7059375 1.06113281 -4.911875 0.80976562 -4.09375 0.55078125 C-2 0 -2 0 0 0 Z " fill="#F5CDC5" transform="translate(76,106)"/>
<path d="M0 0 C1.4540625 0.0309375 1.4540625 0.0309375 2.9375 0.0625 C-0.0625 2.0625 -0.0625 2.0625 -2.0625 3.0625 C-2.0625 3.7225 -2.0625 4.3825 -2.0625 5.0625 C1.2375 5.3925 4.5375 5.7225 7.9375 6.0625 C7.6075 6.7225 7.2775 7.3825 6.9375 8.0625 C5.47957116 8.11649736 4.02107288 8.15529177 2.5625 8.1875 C1.75039063 8.21070312 0.93828125 8.23390625 0.1015625 8.2578125 C-2.0625 8.0625 -2.0625 8.0625 -4.0625 6.0625 C-4.25 3.5 -4.25 3.5 -4.0625 1.0625 C-3.0625 0.0625 -3.0625 0.0625 0 0 Z " fill="#F3A3A4" transform="translate(39.0625,102.9375)"/>
<path d="M0 0 C-2.25740623 2.33524782 -4.2805761 4.18705073 -7 6 C-8.32 6 -9.64 6 -11 6 C-10.34 4.68 -9.68 3.36 -9 2 C-8.34 2 -7.68 2 -7 2 C-7 1.34 -7 0.68 -7 0 C-3.98968256 -0.93423645 -3.13349732 -1.04449911 0 0 Z " fill="#FCCAC3" transform="translate(105,41)"/>
<path d="M0 0 C0.66 0.33 1.32 0.66 2 1 C1.67 1.99 1.34 2.98 1 4 C4.3 3.34 7.6 2.68 11 2 C10.01 2.495 10.01 2.495 9 3 C9 3.66 9 4.32 9 5 C4.545 5.495 4.545 5.495 0 6 C0 5.34 0 4.68 0 4 C-2.31 4.33 -4.62 4.66 -7 5 C-4.88437775 2.67281553 -2.94982021 1.14186589 0 0 Z " fill="#EC7C8A" transform="translate(104,18)"/>
<path d="M0 0 C-0.969375 0.639375 -1.93875 1.27875 -2.9375 1.9375 C-5.76036269 3.6965259 -5.76036269 3.6965259 -7 5 C-9.65463121 5.45459858 -12.32189138 5.70243238 -15 6 C-15 5.34 -15 4.68 -15 4 C-13.25705322 3.13153169 -11.50531337 2.28069373 -9.75 1.4375 C-8.77546875 0.96183594 -7.8009375 0.48617187 -6.796875 -0.00390625 C-3.90143703 -1.03510273 -2.80033839 -1.11346788 0 0 Z " fill="#F99E9F" transform="translate(59,97)"/>
<path d="M0 0 C-8.07744875 6.70387244 -8.07744875 6.70387244 -14 7 C-14 7.66 -14 8.32 -14 9 C-15.32 8.67 -16.64 8.34 -18 8 C-17.01 8 -16.02 8 -15 8 C-15 7.34 -15 6.68 -15 6 C-13.865625 5.54625 -12.73125 5.0925 -11.5625 4.625 C-7.95278308 3.42904194 -7.95278308 3.42904194 -7 1 C-4.01793274 -0.8886426 -3.49368922 -1.16456307 0 0 Z " fill="#FEE6E2" transform="translate(119,89)"/>
<path d="M0 0 C-4.83323235 4.14277059 -8.53597935 6.36937261 -15 6 C-11.31946413 1.45345569 -5.73670284 -0.52151844 0 0 Z " fill="#FECECB" transform="translate(109,64)"/>
<path d="M0 0 C-0.61875 0.0825 -1.2375 0.165 -1.875 0.25 C-4.18437567 0.81258459 -4.18437567 0.81258459 -5.25 3.0625 C-5.4975 3.701875 -5.745 4.34125 -6 5 C-6.99 5 -7.98 5 -9 5 C-9 5.66 -9 6.32 -9 7 C-10.98 7 -12.96 7 -15 7 C-14.01 6.67 -13.02 6.34 -12 6 C-12 5.34 -12 4.68 -12 4 C-4.71428571 -0.57142857 -4.71428571 -0.57142857 0 0 Z " fill="#F3838D" transform="translate(135,66)"/>
<path d="M0 0 C2.31 0.33 4.62 0.66 7 1 C4.86099367 3.33285378 2.83344647 4.7868759 0 6.1875 C-0.680625 6.53167969 -1.36125 6.87585938 -2.0625 7.23046875 C-4 8 -4 8 -7 8 C-6.34 7.01 -5.68 6.02 -5 5 C-4.01 5 -3.02 5 -2 5 C-2 4.34 -2 3.68 -2 3 C-1.34 3 -0.68 3 0 3 C0 2.01 0 1.02 0 0 Z " fill="#F5DBDB" transform="translate(93,19)"/>
<path d="M0 0 C0 0.99 0 1.98 0 3 C-3.23225176 5.40110131 -6.05381058 6.40807159 -10 7 C-10.928125 7.185625 -11.85625 7.37125 -12.8125 7.5625 C-13.534375 7.706875 -14.25625 7.85125 -15 8 C-13.40276979 4.80553958 -10.10023512 4.16730037 -6.9375 2.875 C-6.27427734 2.59785156 -5.61105469 2.32070312 -4.92773438 2.03515625 C-3.28763557 1.35079847 -1.64412717 0.6746225 0 0 Z " fill="#FDDCD0" transform="translate(142,65)"/>
<path d="M0 0 C0 0.66 0 1.32 0 2 C-0.66 2 -1.32 2 -2 2 C-2.66 3.65 -3.32 5.3 -4 7 C-5.32 6.67 -6.64 6.34 -8 6 C-7.67 4.35 -7.34 2.7 -7 1 C-2.25 0 -2.25 0 0 0 Z " fill="#FCE5DA" transform="translate(110,24)"/>
<path d="M0 0 C0.66 0 1.32 0 2 0 C2.26554688 0.91523438 2.53109375 1.83046875 2.8046875 2.7734375 C3.15789062 3.96195313 3.51109375 5.15046875 3.875 6.375 C4.39707031 8.15003906 4.39707031 8.15003906 4.9296875 9.9609375 C5.77687419 13.06491558 5.77687419 13.06491558 8 15 C6.35 14.67 4.7 14.34 3 14 C2.01 9.38 1.02 4.76 0 0 Z " fill="#FDDCDD" transform="translate(140,9)"/>
<path d="M0 0 C0.66 0 1.32 0 2 0 C2 0.66 2 1.32 2 2 C2.99 2 3.98 2 5 2 C5.33 2.99 5.66 3.98 6 5 C5.67 5.66 5.34 6.32 5 7 C4.34 6.67 3.68 6.34 3 6 C3.33 5.34 3.66 4.68 4 4 C3.34 4 2.68 4 2 4 C1.67 4.99 1.34 5.98 1 7 C0.01 7 -0.98 7 -2 7 C-1.42415568 4.61435923 -0.77772405 2.33317216 0 0 Z " fill="#EC4D63" transform="translate(125,17)"/>
<path d="M0 0 C1.65 0 3.3 0 5 0 C5.33 0.99 5.66 1.98 6 3 C5.67 3.66 5.34 4.32 5 5 C3.02 5 1.04 5 -1 5 C-0.67 3.35 -0.34 1.7 0 0 Z " fill="#F96A7A" transform="translate(117,38)"/>
<path d="M0 0 C2.31 0 4.62 0 7 0 C7 0.66 7 1.32 7 2 C6.01 2 5.02 2 4 2 C3.67 2.99 3.34 3.98 3 5 C1.68 5 0.36 5 -1 5 C-0.67 3.35 -0.34 1.7 0 0 Z " fill="#EB4F5C" transform="translate(29,70)"/>
<path d="M0 0 C2.9375 0.375 2.9375 0.375 6 1 C6.33 1.66 6.66 2.32 7 3 C6.34 3 5.68 3 5 3 C5 3.66 5 4.32 5 5 C2.69 5.66 0.38 6.32 -2 7 C-2 6.01 -2 5.02 -2 4 C-0.68 4 0.64 4 2 4 C1.34 2.68 0.68 1.36 0 0 Z " fill="#F95D72" transform="translate(42,68)"/>
<path d="M0 0 C0.66 0.33 1.32 0.66 2 1 C2 1.66 2 2.32 2 3 C3.32 3 4.64 3 6 3 C6 3.66 6 4.32 6 5 C5.34 5 4.68 5 4 5 C4 5.66 4 6.32 4 7 C2.68 6.67 1.36 6.34 0 6 C0 5.34 0 4.68 0 4 C-0.66 4 -1.32 4 -2 4 C-2 3.01 -2 2.02 -2 1 C-1.34 0.67 -0.68 0.34 0 0 Z " fill="#E7485E" transform="translate(142,24)"/>
<path d="M0 0 C-0.66 2.31 -1.32 4.62 -2 7 C-2.99 7 -3.98 7 -5 7 C-5.33 6.34 -5.66 5.68 -6 5 C-6.66 4.67 -7.32 4.34 -8 4 C-3.375 0 -3.375 0 0 0 Z " fill="#F7AAAB" transform="translate(138,21)"/>
<path d="M0 0 C0 1.65 0 3.3 0 5 C0.66 5.33 1.32 5.66 2 6 C1.01 6 0.02 6 -1 6 C-1 5.34 -1 4.68 -1 4 C-3.31 4.33 -5.62 4.66 -8 5 C-7.67 4.34 -7.34 3.68 -7 3 C-6.34 3 -5.68 3 -5 3 C-5 2.34 -5 1.68 -5 1 C-3 0 -3 0 0 0 Z " fill="#EE596E" transform="translate(57,59)"/>
<path d="M0 0 C0.33 0.66 0.66 1.32 1 2 C0.21625 2.2475 -0.5675 2.495 -1.375 2.75 C-4.44548487 4.21213565 -4.6449201 5.01882422 -6 8 C-9.42857143 11 -9.42857143 11 -12 11 C-12 10.34 -12 9.68 -12 9 C-7.52941176 5 -7.52941176 5 -5 5 C-5 4.34 -5 3.68 -5 3 C-2.5 1.375 -2.5 1.375 0 0 Z " fill="#FEECE5" transform="translate(143,70)"/>
<path d="M0 0 C0.99 0.33 1.98 0.66 3 1 C1.76055724 1.86941494 0.50792941 2.72005457 -0.75 3.5625 C-1.44609375 4.03816406 -2.1421875 4.51382813 -2.859375 5.00390625 C-5 6 -5 6 -7.265625 5.65234375 C-7.83796875 5.43707031 -8.4103125 5.22179687 -9 5 C-2.25 1.125 -2.25 1.125 0 0 Z " fill="#FDCDC4" transform="translate(122,67)"/>
<path d="M0 0 C0 0.66 0 1.32 0 2 C0.99 2.33 1.98 2.66 3 3 C1.25 4.5625 1.25 4.5625 -1 6 C-3.25 5.6875 -3.25 5.6875 -5 5 C-4.34 5 -3.68 5 -3 5 C-3 4.34 -3 3.68 -3 3 C-4.32 2.67 -5.64 2.34 -7 2 C-2.25 0 -2.25 0 0 0 Z " fill="#F8B4AD" transform="translate(94,45)"/>
<path d="M0 0 C0.99 0.33 1.98 0.66 3 1 C2.67 3.31 2.34 5.62 2 8 C0.35 8 -1.3 8 -3 8 C-2.34 6.68 -1.68 5.36 -1 4 C-0.34 4 0.32 4 1 4 C0.67 2.68 0.34 1.36 0 0 Z " fill="#F4BEC3" transform="translate(149,26)"/>
<path d="M0 0 C1.65 0 3.3 0 5 0 C5 0.66 5 1.32 5 2 C5.99 2.33 6.98 2.66 8 3 C7.01 3 6.02 3 5 3 C5 3.66 5 4.32 5 5 C3.35 4.67 1.7 4.34 0 4 C0 2.68 0 1.36 0 0 Z " fill="#E9465A" transform="translate(91,28)"/>
<path d="M0 0 C0.99 0.33 1.98 0.66 3 1 C2.67 2.32 2.34 3.64 2 5 C1.34 5 0.68 5 0 5 C0 5.66 0 6.32 0 7 C-0.66 6.67 -1.32 6.34 -2 6 C-1.67 5.34 -1.34 4.68 -1 4 C-2.65 4.66 -4.3 5.32 -6 6 C-5.67 5.01 -5.34 4.02 -5 3 C-3.68 3 -2.36 3 -1 3 C-0.67 2.01 -0.34 1.02 0 0 Z " fill="#FCD9CE" transform="translate(131,74)"/>
<path d="M0 0 C1.5 1.375 1.5 1.375 3 3 C3 3.66 3 4.32 3 5 C-2.28 4.67 -7.56 4.34 -13 4 C-13 3.67 -13 3.34 -13 3 C-12.22914062 2.95101562 -11.45828125 2.90203125 -10.6640625 2.8515625 C-9.66117188 2.77679688 -8.65828125 2.70203125 -7.625 2.625 C-6.62726562 2.55539063 -5.62953125 2.48578125 -4.6015625 2.4140625 C-1.84491121 2.23636036 -1.84491121 2.23636036 0 0 Z " fill="#FBC3BF" transform="translate(51,55)"/>
<path d="M0 0 C3.96 0 7.92 0 12 0 C12 0.66 12 1.32 12 2 C7.6835078 2.76173392 4.25566547 3.16063604 0 2 C0 1.34 0 0.68 0 0 Z " fill="#F3E4D7" transform="translate(67,46)"/>
<path d="M0 0 C-1.6029053 0.81498562 -3.20737278 1.62689927 -4.8125 2.4375 C-5.70582031 2.88996094 -6.59914063 3.34242187 -7.51953125 3.80859375 C-10 5 -10 5 -13 6 C-13 5.34 -13 4.68 -13 4 C-8.84581922 0.08320098 -5.58975905 -1.86325302 0 0 Z " fill="#FB8296" transform="translate(58,103)"/>
<path d="M0 0 C2.31 0.33 4.62 0.66 7 1 C4.3401439 4.44216672 1.09711714 4.99504674 -3 6 C-3 5.34 -3 4.68 -3 4 C-2.01 4 -1.02 4 0 4 C0 2.68 0 1.36 0 0 Z " fill="#F26873" transform="translate(20,61)"/>
<path d="M0 0 C0 0.99 0 1.98 0 3 C-3.4352048 5.29013653 -4.985331 5.17842973 -9 5 C-7.694761 2.38952199 -6.64173426 2.31933577 -3.9375 1.375 C-3.20402344 1.11460938 -2.47054687 0.85421875 -1.71484375 0.5859375 C-1.14894531 0.39257812 -0.58304688 0.19921875 0 0 Z " fill="#F48089" transform="translate(109,47)"/>
<path d="M0 0 C0 1.65 0 3.3 0 5 C-0.99 5.33 -1.98 5.66 -3 6 C-4.20882096 8.00016466 -4.20882096 8.00016466 -5 10 C-5.33 9.01 -5.66 8.02 -6 7 C-5.34 7 -4.68 7 -4 7 C-3.87625 6.030625 -3.7525 5.06125 -3.625 4.0625 C-3.41875 3.051875 -3.2125 2.04125 -3 1 C-1 0 -1 0 0 0 Z " fill="#F74862" transform="translate(140,12)"/>
<path d="M0 0 C0 0.99 0 1.98 0 3 C-0.66 3 -1.32 3 -2 3 C-2.33 3.99 -2.66 4.98 -3 6 C-3 4.35 -3 2.7 -3 1 C-3.598125 1.33 -4.19625 1.66 -4.8125 2 C-7 3 -7 3 -10 3 C-10 2.34 -10 1.68 -10 1 C-6.78548731 -0.60725635 -3.56387464 -0.05748185 0 0 Z " fill="#DF394D" transform="translate(139,10)"/>
<path d="M0 0 C0 0.66 0 1.32 0 2 C0.99 2.33 1.98 2.66 3 3 C0.11788698 3.96070434 -1.69850044 4.10581883 -4.6875 4.0625 C-5.89986328 4.04896484 -5.89986328 4.04896484 -7.13671875 4.03515625 C-8.05904297 4.01775391 -8.05904297 4.01775391 -9 4 C-8 2 -8 2 -5.0625 0.875 C-2 0 -2 0 0 0 Z " fill="#F6DDCD" transform="translate(113,79)"/>
<path d="M0 0 C-0.928125 0.4021875 -0.928125 0.4021875 -1.875 0.8125 C-4.2995233 1.95556848 -4.2995233 1.95556848 -6 5 C-9.625 5.6875 -9.625 5.6875 -13 6 C-11.68171852 3.36343704 -10.17641328 2.75334666 -7.625 1.3125 C-6.83351563 0.85488281 -6.04203125 0.39726563 -5.2265625 -0.07421875 C-3 -1 -3 -1 0 0 Z " fill="#FED1C7" transform="translate(113,74)"/>
<path d="M0 0 C2.31 0 4.62 0 7 0 C7 0.99 7 1.98 7 3 C4.36 3 1.72 3 -1 3 C-0.67 2.01 -0.34 1.02 0 0 Z " fill="#FEE4DE" transform="translate(24,66)"/>
<path d="M0 0 C2.97 0 5.94 0 9 0 C9 0.99 9 1.98 9 3 C6.69 3 4.38 3 2 3 C2 2.34 2 1.68 2 1 C1.34 0.67 0.68 0.34 0 0 Z " fill="#FA4D67" transform="translate(63,57)"/>
<path d="M0 0 C-3.55801836 2.37201224 -6.7591599 3.48845898 -11 4 C-14 3.125 -14 3.125 -16 2 C-16 1.67 -16 1.34 -16 1 C-10.65097076 0.40801257 -5.39115154 -0.14187241 0 0 Z " fill="#F36C77" transform="translate(59,52)"/>
<path d="M0 0 C0.66 0 1.32 0 2 0 C2 0.66 2 1.32 2 2 C2.66 2.33 3.32 2.66 4 3 C3 4 3 4 1.15234375 4.09765625 C-0.8984375 4.06510417 -2.94921875 4.03255208 -5 4 C-5 3.01 -5 2.02 -5 1 C-4.01 1.33 -3.02 1.66 -2 2 C-1.34 1.34 -0.68 0.68 0 0 Z " fill="#F56D81" transform="translate(74,41)"/>
<path d="M0 0 C1.32 0.33 2.64 0.66 4 1 C2.68 2.32 1.36 3.64 0 5 C-0.33 4.34 -0.66 3.68 -1 3 C-3.64 3.33 -6.28 3.66 -9 4 C-8.67 3.34 -8.34 2.68 -8 2 C-5.36 2 -2.72 2 0 2 C0 1.34 0 0.68 0 0 Z " fill="#F5E7E2" transform="translate(124,9)"/>
<path d="M0 0 C1.875 0.5625 1.875 0.5625 4 2 C5.25 5.625 5.25 5.625 6 9 C1.2 5.67692308 1.2 5.67692308 0.1875 2.25 C0.125625 1.5075 0.06375 0.765 0 0 Z " fill="#FCCFCC" transform="translate(22,98)"/>
<path d="M0 0 C1.98 0 3.96 0 6 0 C4.95125002 2.62187494 4.35068687 3.79371361 1.875 5.25 C1.25625 5.4975 0.6375 5.745 0 6 C0 4.02 0 2.04 0 0 Z " fill="#F9A1AC" transform="translate(15,83)"/>
<path d="M0 0 C0 0.33 0 0.66 0 1 C-0.68707031 1.12117188 -1.37414063 1.24234375 -2.08203125 1.3671875 C-2.98308594 1.53476563 -3.88414063 1.70234375 -4.8125 1.875 C-5.70582031 2.03742188 -6.59914063 2.19984375 -7.51953125 2.3671875 C-10.22727846 2.91188449 -10.22727846 2.91188449 -13 5 C-13.99 4.01 -14.98 3.02 -16 2 C-10.42932723 0.40837921 -5.78898419 -0.20674944 0 0 Z " fill="#ED9595" transform="translate(39,68)"/>
<path d="M0 0 C2.97 0 5.94 0 9 0 C9 0.66 9 1.32 9 2 C5.7 2.33 2.4 2.66 -1 3 C-0.67 2.01 -0.34 1.02 0 0 Z " fill="#F9E7DA" transform="translate(52,55)"/>
<path d="M0 0 C0 0.66 0 1.32 0 2 C-2.90600261 3.25664978 -4.79604584 4 -8 4 C-8.33 3.01 -8.66 2.02 -9 1 C-5.846632 0.29925156 -3.27275026 0 0 0 Z " fill="#F9D3C5" transform="translate(91,48)"/>
<path d="M0 0 C0.33 1.32 0.66 2.64 1 4 C0.01 4.33 -0.98 4.66 -2 5 C-2.33 5.99 -2.66 6.98 -3 8 C-3.66 8 -4.32 8 -5 8 C-5 6.35 -5 4.7 -5 3 C-3.35 3 -1.7 3 0 3 C0 2.01 0 1.02 0 0 Z " fill="#F27480" transform="translate(64,44)"/>
<path d="M0 0 C2.375 0.25 2.375 0.25 5 1 C6.3125 3.0625 6.3125 3.0625 7 5 C3.89448334 5 2.64738916 4.4606285 0 3 C0 2.01 0 1.02 0 0 Z " fill="#EFFCF8" transform="translate(33,46)"/>
<path d="M0 0 C2 1 2 1 3 3 C2.34 3 1.68 3 1 3 C1 3.99 1 4.98 1 6 C1.99 6.33 2.98 6.66 4 7 C2.02 7 0.04 7 -2 7 C-2 6.01 -2 5.02 -2 4 C-1.34 4 -0.68 4 0 4 C0 3.34 0 2.68 0 2 C-0.99 1.67 -1.98 1.34 -3 1 C-2.01 0.67 -1.02 0.34 0 0 Z " fill="#F89295" transform="translate(83,41)"/>
<path d="M0 0 C0.99 0 1.98 0 3 0 C2.625 2.4375 2.625 2.4375 2 5 C1.01 5.495 1.01 5.495 0 6 C-0.66 5.67 -1.32 5.34 -2 5 C-1.125 1.125 -1.125 1.125 0 0 Z " fill="#EA6470" transform="translate(129,31)"/>
<path d="M0 0 C0.33 0.66 0.66 1.32 1 2 C0.34 2 -0.32 2 -1 2 C-0.65555119 4.47266765 -0.65555119 4.47266765 0 7 C0.66 7.33 1.32 7.66 2 8 C0.02 8.33 -1.96 8.66 -4 9 C-3.71848913 7.68528432 -3.42446661 6.37324233 -3.125 5.0625 C-2.96257812 4.33160156 -2.80015625 3.60070312 -2.6328125 2.84765625 C-2 1 -2 1 0 0 Z " fill="#F6697B" transform="translate(138,25)"/>
<path d="M0 0 C0 0.66 0 1.32 0 2 C-2 3.625 -2 3.625 -4 5 C-4 4.01 -4 3.02 -4 2 C-4.99 2.495 -4.99 2.495 -6 3 C-7.99960012 3.039992 -10.00047242 3.04346799 -12 3 C-8.06769671 0.37846447 -4.67664739 0 0 0 Z " fill="#E25C6F" transform="translate(104,22)"/>
<path d="M0 0 C0 0.66 0 1.32 0 2 C-6.4 5.07692308 -6.4 5.07692308 -9.4375 4.6875 C-9.953125 4.460625 -10.46875 4.23375 -11 4 C-7.34730776 1.66633552 -4.38405624 0 0 0 Z " fill="#FDC4C0" transform="translate(89,89)"/>
<path d="M0 0 C0 0.66 0 1.32 0 2 C-1.98 2.99 -3.96 3.98 -6 5 C-6 4.34 -6 3.68 -6 3 C-6.66 2.34 -7.32 1.68 -8 1 C-5.29120665 -0.35439668 -2.99066732 -0.06501451 0 0 Z " fill="#F8A0A1" transform="translate(104,81)"/>
<path d="M0 0 C0 0.66 0 1.32 0 2 C-0.66 2.66 -1.32 3.32 -2 4 C-2 4.33 -2 4.66 -2 5 C-3.65 5 -5.3 5 -7 5 C-7.33 4.34 -7.66 3.68 -8 3 C-2.25 0 -2.25 0 0 0 Z " fill="#F1818C" transform="translate(52,60)"/>
<path d="M0 0 C3.625 -0.1875 3.625 -0.1875 7 0 C5.875 1.5 5.875 1.5 4 3 C0.8125 3.1875 0.8125 3.1875 -2 3 C-1.34 2.01 -0.68 1.02 0 0 Z " fill="#FBE2D7" transform="translate(74,61)"/>
<path d="M0 0 C0.66 0.33 1.32 0.66 2 1 C2 1.99 2 2.98 2 4 C1.01 4 0.02 4 -1 4 C-1.33 4.66 -1.66 5.32 -2 6 C-2 5.01 -2 4.02 -2 3 C-4.31 3 -6.62 3 -9 3 C-9 2.67 -9 2.34 -9 2 C-6.94921875 1.77213542 -4.8984375 1.54427083 -2.84765625 1.31640625 C-0.98859771 1.18113386 -0.98859771 1.18113386 0 0 Z " fill="#F3A7AB" transform="translate(67,41)"/>
<path d="M0 0 C2.64 0.33 5.28 0.66 8 1 C6.68 2.65 5.36 4.3 4 6 C2.68 4.02 1.36 2.04 0 0 Z " fill="#FAC0BE" transform="translate(37,111)"/>
<path d="M0 0 C0.99 0.495 0.99 0.495 2 1 C1.01 1.495 1.01 1.495 0 2 C0 1.34 0 0.68 0 0 Z M-2.875 1.875 C-1.92625 1.91625 -0.9775 1.9575 0 2 C0 2.99 0 3.98 0 5 C-2.64 4.67 -5.28 4.34 -8 4 C-6 2 -6 2 -2.875 1.875 Z " fill="#F9F6EF" transform="translate(105,96)"/>
<path d="M0 0 C1.98 0 3.96 0 6 0 C6 0.99 6 1.98 6 3 C3.69 3 1.38 3 -1 3 C-0.67 2.01 -0.34 1.02 0 0 Z " fill="#E14F5A" transform="translate(19,72)"/>
<path d="M0 0 C0.33 0.99 0.66 1.98 1 3 C-2.63423209 5.32590854 -5.77088331 5.16265833 -10 5 C-10 4.67 -10 4.34 -10 4 C-8.35 4 -6.7 4 -5 4 C-5 3.34 -5 2.68 -5 2 C-3.35 1.34 -1.7 0.68 0 0 Z " fill="#FAD9CD" transform="translate(103,53)"/>
<path d="M0 0 C2.97 0.495 2.97 0.495 6 1 C5.67 1.66 5.34 2.32 5 3 C4.34 3 3.68 3 3 3 C3 3.99 3 4.98 3 6 C1.68 6.33 0.36 6.66 -1 7 C-0.67 6.34 -0.34 5.68 0 5 C0.66 5 1.32 5 2 5 C2 4.01 2 3.02 2 2 C1.34 2 0.68 2 0 2 C0 1.34 0 0.68 0 0 Z " fill="#FCDBE1" transform="translate(32,51)"/>
<path d="M0 0 C1.98 0 3.96 0 6 0 C5.25 1.9375 5.25 1.9375 4 4 C1.875 4.75 1.875 4.75 0 5 C0 3.35 0 1.7 0 0 Z " fill="#FBD1D8" transform="translate(76,32)"/>
<path d="M0 0 C0.33 0.99 0.66 1.98 1 3 C-0.98 3 -2.96 3 -5 3 C-5 3.66 -5 4.32 -5 5 C-6.32 4.67 -7.64 4.34 -9 4 C-3 0 -3 0 0 0 Z " fill="#F75A6E" transform="translate(114,30)"/>
<path d="M0 0 C5.75 -0.125 5.75 -0.125 8 1 C8 2.65 8 4.3 8 6 C7.01 5.67 6.02 5.34 5 5 C5 3.68 5 2.36 5 1 C3.35 1 1.7 1 0 1 C0 0.67 0 0.34 0 0 Z " fill="#EDD6C9" transform="translate(117,12)"/>
<path d="M0 0 C1.98 0 3.96 0 6 0 C6 0.99 6 1.98 6 3 C4.02 3 2.04 3 0 3 C0 2.01 0 1.02 0 0 Z " fill="#FAB9BA" transform="translate(29,105)"/>
<path d="M0 0 C2.31 0.33 4.62 0.66 7 1 C4.75 3.0625 4.75 3.0625 2 5 C-0.3125 4.75 -0.3125 4.75 -2 4 C-1.01 3.67 -0.02 3.34 1 3 C1.33 2.34 1.66 1.68 2 1 C1.34 0.67 0.68 0.34 0 0 Z " fill="#F99A9D" transform="translate(76,89)"/>
<path d="M0 0 C0.99 0 1.98 0 3 0 C3.66 1.65 4.32 3.3 5 5 C3.35 5 1.7 5 0 5 C0 3.35 0 1.7 0 0 Z " fill="#FCCBC9" transform="translate(22,77)"/>
<path d="M0 0 C2.31 0 4.62 0 7 0 C6.67 0.66 6.34 1.32 6 2 C3.67843403 2.40729228 1.3431213 2.74438677 -1 3 C-0.67 2.01 -0.34 1.02 0 0 Z " fill="#FBCDCA" transform="translate(87,70)"/>
<path d="M0 0 C1.98 0 3.96 0 6 0 C6.33 0.99 6.66 1.98 7 3 C4.69 3 2.38 3 0 3 C0 2.01 0 1.02 0 0 Z " fill="#F15A6A" transform="translate(74,55)"/>
<path d="M0 0 C-0.99 0.495 -0.99 0.495 -2 1 C-1.34 1.66 -0.68 2.32 0 3 C-2.31 3 -4.62 3 -7 3 C-6.67 2.01 -6.34 1.02 -6 0 C-3 -1 -3 -1 0 0 Z " fill="#DD4256" transform="translate(52,49)"/>
<path d="M0 0 C-4.02089784 2.2184264 -6.61742454 2.20898633 -11 1 C-7.2297564 -1.56376565 -4.32597804 -0.83191885 0 0 Z " fill="#F4AAA8" transform="translate(111,39)"/>
<path d="M0 0 C0.66 0.33 1.32 0.66 2 1 C1.67 1.33 1.34 1.66 1 2 C1.66 2.66 2.32 3.32 3 4 C0.69 4.33 -1.62 4.66 -4 5 C-4 4.34 -4 3.68 -4 3 C-2 1.375 -2 1.375 0 0 Z " fill="#F5A8A5" transform="translate(95,34)"/>
<path d="M0 0 C0.99 0 1.98 0 3 0 C3 1.32 3 2.64 3 4 C1.35 4.33 -0.3 4.66 -2 5 C-1.125 1.125 -1.125 1.125 0 0 Z " fill="#E04356" transform="translate(86,29)"/>
<path d="M0 0 C2.31 0.33 4.62 0.66 7 1 C6.67 1.66 6.34 2.32 6 3 C4.02 3 2.04 3 0 3 C0 2.01 0 1.02 0 0 Z " fill="#E64758" transform="translate(105,19)"/>
<path d="M0 0 C0.66 0.33 1.32 0.66 2 1 C0.02579865 3.52259061 -0.96745642 3.9929808 -4.1875 4.6875 C-5.5796875 4.8421875 -5.5796875 4.8421875 -7 5 C-4.63707344 2.47411298 -3.33537489 1.11179163 0 0 Z " fill="#F78790" transform="translate(44,73)"/>
<path d="M0 0 C0.66 0 1.32 0 2 0 C2 0.99 2 1.98 2 3 C-0.75078884 3.91692961 -2.35948913 4.10886083 -5.1875 4.0625 C-7.0746875 4.0315625 -7.0746875 4.0315625 -9 4 C-9 3.67 -9 3.34 -9 3 C-7.88625 2.87625 -6.7725 2.7525 -5.625 2.625 C-1.96896323 2.3534187 -1.96896323 2.3534187 0 0 Z " fill="#FCC3BE" transform="translate(40,64)"/>
<path d="M0 0 C-0.66 1.32 -1.32 2.64 -2 4 C-3.32 4 -4.64 4 -6 4 C-6 4.66 -6 5.32 -6 6 C-6.66 5.67 -7.32 5.34 -8 5 C-3.22727273 0 -3.22727273 0 0 0 Z " fill="#FEE8E7" transform="translate(152,64)"/>
<path d="M0 0 C0.66 0.33 1.32 0.66 2 1 C0.35 2.65 -1.3 4.3 -3 6 C-3.99 5.67 -4.98 5.34 -6 5 C-4.02 3.35 -2.04 1.7 0 0 Z " fill="#FDD3D0" transform="translate(115,58)"/>
<path d="M0 0 C2.97 0.33 5.94 0.66 9 1 C6 3 6 3 2.8125 2.625 C1.884375 2.41875 0.95625 2.2125 0 2 C0 1.34 0 0.68 0 0 Z " fill="#F9D0C7" transform="translate(74,51)"/>
</svg>
