<?xml version="1.0" encoding="UTF-8"?>
<!DOCTYPE svg PUBLIC "-//W3C//DTD SVG 1.1//EN" "http://www.w3.org/Graphics/SVG/1.1/DTD/svg11.dtd">
<svg xmlns="http://www.w3.org/2000/svg" version="1.1" width="3125px" height="3125px" style="shape-rendering:geometricPrecision; text-rendering:geometricPrecision; image-rendering:optimizeQuality; fill-rule:evenodd; clip-rule:evenodd" xmlns:xlink="http://www.w3.org/1999/xlink">
<g><path style="opacity:0.986" fill="#000000" d="M 1557.5,1068.5 C 1566.96,1066.65 1574.46,1069.65 1580,1077.5C 1594.92,1105.78 1614.42,1130.61 1638.5,1152C 1663.94,1172.88 1690.27,1192.55 1717.5,1211C 1737.83,1222 1758.17,1233 1778.5,1244C 1781.67,1247.17 1784.83,1250.33 1788,1253.5C 1793.28,1261.78 1798.94,1269.78 1805,1277.5C 1817.47,1290.46 1829.47,1303.79 1841,1317.5C 1854.5,1332.33 1868.67,1346.5 1883.5,1360C 1896.54,1359.59 1908.54,1362.93 1919.5,1370C 1930.01,1376.75 1940.34,1383.75 1950.5,1391C 1968.45,1409.28 1985.28,1428.44 2001,1448.5C 2005.55,1456.43 2010.72,1463.93 2016.5,1471C 2020.5,1473 2024.5,1473 2028.5,1471C 2034.5,1466.33 2040.5,1461.67 2046.5,1457C 2064.84,1445.5 2082.84,1433.5 2100.5,1421C 2107.01,1414.8 2112.18,1407.64 2116,1399.5C 2131.82,1382.67 2149.65,1368.5 2169.5,1357C 2178.43,1353.13 2186.76,1354.13 2194.5,1360C 2216.03,1383.87 2239.69,1405.2 2265.5,1424C 2271.33,1429.83 2277.17,1435.67 2283,1441.5C 2289.51,1451.84 2295.51,1462.51 2301,1473.5C 2314.08,1486.86 2326.58,1500.69 2338.5,1515C 2340.83,1516.67 2343.17,1518.33 2345.5,1520C 2363.38,1526.94 2380.05,1535.94 2395.5,1547C 2404.42,1555 2411.25,1564.5 2416,1575.5C 2422.71,1583.21 2429.05,1591.21 2435,1599.5C 2439.74,1603.78 2444.57,1607.95 2449.5,1612C 2472.38,1624.93 2494.04,1639.6 2514.5,1656C 2520.37,1661.53 2525.87,1667.36 2531,1673.5C 2537.96,1683.91 2544.79,1694.41 2551.5,1705C 2557.58,1710.21 2564.58,1713.54 2572.5,1715C 2584.49,1714.63 2596.49,1714.63 2608.5,1715C 2627.5,1717.33 2644.5,1724.33 2659.5,1736C 2685.71,1763.22 2714.05,1787.89 2744.5,1810C 2755.12,1819.11 2763.95,1829.61 2771,1841.5C 2781.97,1854.13 2793.3,1866.47 2805,1878.5C 2808.12,1881.78 2810.62,1885.44 2812.5,1889.5C 2819.65,1895.24 2826.99,1900.74 2834.5,1906C 2864.14,1923.06 2892.31,1942.23 2919,1963.5C 2920.58,1969.9 2922.74,1976.07 2925.5,1982C 2922.76,1981.98 2920.09,1981.31 2917.5,1980C 2894.29,1967.9 2872.62,1953.57 2852.5,1937C 2849.87,1935.1 2847.04,1933.6 2844,1932.5C 2843.67,1935.21 2844.01,1937.87 2845,1940.5C 2848.59,1947.85 2851.76,1955.35 2854.5,1963C 2851.03,1964.83 2847.36,1965.83 2843.5,1966C 2838.61,1960.11 2834.11,1953.95 2830,1947.5C 2826.05,1937.63 2821.71,1927.96 2817,1918.5C 2806.07,1912.29 2795.57,1905.46 2785.5,1898C 2765.08,1876.97 2745.25,1855.47 2726,1833.5C 2703.81,1808.96 2678.98,1787.79 2651.5,1770C 2632.8,1758.99 2612.8,1751.32 2591.5,1747C 2570.13,1743.42 2551.13,1748.42 2534.5,1762C 2529.72,1766.91 2524.72,1771.57 2519.5,1776C 2510.88,1779.29 2507.05,1776.46 2508,1767.5C 2514.47,1760.14 2519.47,1751.81 2523,1742.5C 2529.82,1737.74 2531.48,1731.74 2528,1724.5C 2516.79,1708.96 2503.29,1695.79 2487.5,1685C 2438.62,1667.99 2402.45,1636.49 2379,1590.5C 2372.03,1581.2 2363.53,1573.7 2353.5,1568C 2334.52,1558.84 2315.85,1549.18 2297.5,1539C 2294.73,1536.62 2292.56,1533.78 2291,1530.5C 2289.65,1520.46 2286.32,1511.12 2281,1502.5C 2264.44,1477.94 2247.11,1453.94 2229,1430.5C 2218.52,1419.52 2207.02,1409.85 2194.5,1401.5C 2189.91,1403.26 2187.41,1406.59 2187,1411.5C 2186.92,1425.57 2185.92,1439.57 2184,1453.5C 2181.33,1464.84 2178.66,1476.17 2176,1487.5C 2175.22,1514.71 2181.22,1540.37 2194,1564.5C 2197.47,1568.97 2201.3,1573.13 2205.5,1577C 2229.84,1591.83 2253.84,1607.17 2277.5,1623C 2305.8,1647.14 2334.46,1670.81 2363.5,1694C 2381.41,1710.58 2397.91,1728.41 2413,1747.5C 2425.02,1761.2 2438.52,1773.03 2453.5,1783C 2479.41,1808.25 2503.91,1834.75 2527,1862.5C 2571.17,1910.48 2622,1949.65 2679.5,1980C 2682.28,1982.6 2683.94,1985.77 2684.5,1989.5C 2674.37,1989.48 2664.37,1988.32 2654.5,1986C 2623.37,1976.1 2594.04,1962.43 2566.5,1945C 2560.83,1938.67 2555.17,1932.33 2549.5,1926C 2544.83,1922.67 2540.17,1919.33 2535.5,1916C 2523.62,1909.89 2511.62,1904.06 2499.5,1898.5C 2498.56,1906.5 2498.73,1914.5 2500,1922.5C 2503.23,1943.14 2505.9,1963.8 2508,1984.5C 2501.25,1977.01 2496.59,1968.35 2494,1958.5C 2490.67,1941.84 2487.33,1925.17 2484,1908.5C 2480.26,1896.28 2475.93,1884.28 2471,1872.5C 2448.52,1859.37 2428.36,1843.21 2410.5,1824C 2404,1818.91 2397,1814.58 2389.5,1811C 2362.47,1800.82 2336.47,1788.48 2311.5,1774C 2304.57,1772.38 2297.57,1771.71 2290.5,1772C 2289.88,1773.4 2289.55,1774.9 2289.5,1776.5C 2293.65,1794.09 2297.48,1811.76 2301,1829.5C 2304.58,1840.67 2309.25,1851.33 2315,1861.5C 2316.02,1866.86 2315.18,1871.86 2312.5,1876.5C 2306.32,1874.49 2301.82,1870.49 2299,1864.5C 2287.82,1842.12 2274.15,1821.45 2258,1802.5C 2250.45,1788.51 2244.45,1773.84 2240,1758.5C 2237.25,1752.68 2234.25,1747.01 2231,1741.5C 2200.38,1701.88 2169.38,1662.55 2138,1623.5C 2127.2,1611.03 2116.04,1598.87 2104.5,1587C 2089.6,1575.38 2072.93,1567.22 2054.5,1562.5C 2054.17,1564.17 2053.83,1565.83 2053.5,1567.5C 2055.19,1575.44 2056.02,1583.44 2056,1591.5C 2053.5,1593.48 2050.67,1593.98 2047.5,1593C 2033.38,1573.94 2019.88,1554.44 2007,1534.5C 1986.68,1499.52 1964.01,1466.19 1939,1434.5C 1922.91,1413.75 1902.08,1400.25 1876.5,1394C 1866.29,1391.36 1855.96,1389.36 1845.5,1388C 1830.15,1386.44 1814.82,1384.78 1799.5,1383C 1788.11,1380.21 1776.78,1377.21 1765.5,1374C 1761.82,1373.58 1758.16,1373.08 1754.5,1372.5C 1738.55,1374.99 1722.55,1376.99 1706.5,1378.5C 1707.4,1373.54 1709.73,1369.38 1713.5,1366C 1732.55,1355.98 1752.22,1347.31 1772.5,1340C 1782.5,1338.36 1792.5,1337.02 1802.5,1336C 1803.71,1332.97 1803.21,1330.14 1801,1327.5C 1792.28,1317.12 1783.95,1306.45 1776,1295.5C 1772.5,1292 1769,1288.5 1765.5,1285C 1717.08,1257.23 1671.41,1225.57 1628.5,1190C 1618.17,1178.33 1607.17,1167.33 1595.5,1157C 1591.76,1154.22 1587.6,1152.38 1583,1151.5C 1575.4,1153.8 1569.74,1158.47 1566,1165.5C 1560.62,1189.52 1549.28,1210.19 1532,1227.5C 1525.41,1241.12 1521.07,1255.45 1519,1270.5C 1514.61,1285.29 1507.61,1298.62 1498,1310.5C 1488.67,1319.17 1479.33,1327.83 1470,1336.5C 1461.03,1349.4 1456.03,1363.73 1455,1379.5C 1454.29,1390.18 1454.46,1400.85 1455.5,1411.5C 1455.41,1416.45 1454.24,1421.12 1452,1425.5C 1443.58,1438.01 1434.91,1450.34 1426,1462.5C 1418.1,1468.47 1410.77,1475.13 1404,1482.5C 1393.73,1498.65 1387.39,1516.32 1385,1535.5C 1382.09,1560.14 1379.43,1584.81 1377,1609.5C 1373.05,1638.36 1363.71,1665.36 1349,1690.5C 1342.17,1702.17 1335.33,1713.83 1328.5,1725.5C 1332.81,1730.46 1332.47,1734.96 1327.5,1739C 1314.41,1745.09 1300.74,1749.25 1286.5,1751.5C 1287.52,1762.88 1291.36,1773.21 1298,1782.5C 1308.11,1792.61 1318.28,1802.78 1328.5,1813C 1332.39,1816.03 1336.72,1817.03 1341.5,1816C 1356.18,1806.32 1371.52,1797.65 1387.5,1790C 1398.37,1783.13 1408.04,1774.8 1416.5,1765C 1438.9,1755.22 1458.4,1741.39 1475,1723.5C 1476.67,1720.83 1478.33,1718.17 1480,1715.5C 1484.32,1699.18 1491.32,1684.18 1501,1670.5C 1515.76,1653.07 1529.76,1635.07 1543,1616.5C 1552.15,1605.84 1563.32,1598 1576.5,1593C 1598.69,1586.33 1617.52,1574.5 1633,1557.5C 1646.19,1538.64 1660.53,1520.64 1676,1503.5C 1685.9,1481.96 1702.74,1471.79 1726.5,1473C 1738.34,1476.59 1749.01,1482.25 1758.5,1490C 1772.17,1503.67 1785.83,1517.33 1799.5,1531C 1817.5,1542.5 1836.5,1552.17 1856.5,1560C 1887.09,1576.12 1915.42,1595.45 1941.5,1618C 1954.3,1629.13 1966.8,1640.63 1979,1652.5C 2000.37,1675.53 2021.37,1698.87 2042,1722.5C 2054.5,1736.33 2067.67,1749.5 2081.5,1762C 2095.75,1769.75 2110.75,1775.75 2126.5,1780C 2139.4,1785.23 2149.56,1793.73 2157,1805.5C 2166.28,1826.78 2179.45,1845.28 2196.5,1861C 2212.83,1873.33 2229.17,1885.67 2245.5,1898C 2259.4,1911.81 2273.06,1925.81 2286.5,1940C 2290.5,1942.33 2294.5,1944.67 2298.5,1947C 2314.51,1952.84 2330.18,1959.51 2345.5,1967C 2350.31,1973.06 2349.31,1977.73 2342.5,1981C 2327.73,1985.83 2313.06,1985.49 2298.5,1980C 2282.95,1972.73 2267.28,1965.73 2251.5,1959C 2242.92,1952.65 2236.08,1944.82 2231,1935.5C 2227.13,1931.3 2222.97,1927.47 2218.5,1924C 2207.45,1917.48 2196.12,1911.48 2184.5,1906C 2178.54,1897.92 2172.71,1889.75 2167,1881.5C 2159.5,1872.67 2151.33,1864.5 2142.5,1857C 2125.06,1842.9 2107.06,1829.56 2088.5,1817C 2085.59,1815.68 2082.59,1815.35 2079.5,1816C 2083.06,1837.84 2086.89,1859.67 2091,1881.5C 2097.27,1907.97 2107.27,1932.97 2121,1956.5C 2130.41,1975.12 2134.24,1994.79 2132.5,2015.5C 2126.35,2008.67 2121.35,2001 2117.5,1992.5C 2110.56,1987.73 2104.06,1982.4 2098,1976.5C 2091.57,1960.3 2084.57,1944.3 2077,1928.5C 2071.73,1919.56 2066.06,1910.9 2060,1902.5C 2056.16,1889.46 2052.16,1876.46 2048,1863.5C 2045.09,1848.97 2041.43,1834.64 2037,1820.5C 2033.12,1812.63 2028.46,1805.3 2023,1798.5C 2017.22,1786.49 2012.22,1774.15 2008,1761.5C 2005.34,1754.83 2001.67,1748.83 1997,1743.5C 1986.95,1733.45 1976.95,1723.45 1967,1713.5C 1959.73,1700.56 1950.57,1689.06 1939.5,1679C 1915.87,1661.66 1893.53,1642.66 1872.5,1622C 1867.67,1618.42 1862.67,1615.09 1857.5,1612C 1817.04,1595.78 1779.7,1574.45 1745.5,1548C 1743.98,1546.99 1742.31,1546.49 1740.5,1546.5C 1737.49,1569.61 1742.32,1590.95 1755,1610.5C 1759.42,1617.01 1764.09,1623.34 1769,1629.5C 1783.3,1644.8 1797.97,1659.8 1813,1674.5C 1816.33,1679.17 1819.67,1683.83 1823,1688.5C 1827.39,1699.68 1831.39,1711.02 1835,1722.5C 1856.71,1764.28 1873.71,1807.94 1886,1853.5C 1890.75,1860.68 1895.75,1867.68 1901,1874.5C 1905.68,1881.23 1907.18,1888.56 1905.5,1896.5C 1901.93,1897.89 1898.6,1897.39 1895.5,1895C 1883.36,1883.53 1873.52,1870.36 1866,1855.5C 1852.14,1825.58 1838.47,1795.58 1825,1765.5C 1813.34,1718.31 1787.51,1681.14 1747.5,1654C 1742.03,1649.53 1736.87,1644.7 1732,1639.5C 1722.29,1627.24 1712.45,1615.08 1702.5,1603C 1693.49,1597.32 1684.82,1597.99 1676.5,1605C 1671.5,1609.33 1666.5,1613.67 1661.5,1618C 1657.12,1620.4 1652.46,1621.9 1647.5,1622.5C 1646.89,1630.18 1646.05,1637.85 1645,1645.5C 1643.94,1648.56 1642.11,1651.06 1639.5,1653C 1632.37,1655.95 1625.04,1658.28 1617.5,1660C 1610.19,1663.99 1606.02,1670.15 1605,1678.5C 1602.97,1710.86 1600.64,1743.19 1598,1775.5C 1594.61,1801.77 1584.11,1824.6 1566.5,1844C 1562.43,1847.06 1558.1,1849.73 1553.5,1852C 1539.89,1854.39 1528.39,1860.55 1519,1870.5C 1512.97,1881.57 1508.31,1893.24 1505,1905.5C 1501.1,1915.65 1495.43,1924.65 1488,1932.5C 1481.41,1940.52 1479.41,1949.52 1482,1959.5C 1484.44,1970.54 1489.6,1980.04 1497.5,1988C 1509.3,1998.13 1520.8,2008.63 1532,2019.5C 1537.76,2025.51 1538.76,2032.17 1535,2039.5C 1532.69,2041.04 1530.19,2041.54 1527.5,2041C 1495.73,2027.63 1466.73,2009.96 1440.5,1988C 1413.79,1964.96 1386.79,1942.29 1359.5,1920C 1344.99,1910.83 1329.99,1902.5 1314.5,1895C 1306.14,1889.49 1298.14,1883.49 1290.5,1877C 1266.83,1852.67 1243.17,1828.33 1219.5,1804C 1208.06,1795.19 1196.89,1786.03 1186,1776.5C 1180.22,1769.51 1176.55,1761.51 1175,1752.5C 1170.76,1750.17 1166.26,1748.34 1161.5,1747C 1160.33,1745.83 1159.17,1744.67 1158,1743.5C 1154.74,1736.73 1152.08,1729.73 1150,1722.5C 1143.55,1711.94 1137.89,1700.94 1133,1689.5C 1130.64,1677.35 1127.64,1665.35 1124,1653.5C 1117.82,1638.65 1107.98,1626.82 1094.5,1618C 1056.04,1600.62 1020.37,1578.95 987.5,1553C 973.072,1540.57 958.072,1528.9 942.5,1518C 937.533,1514.03 932.866,1509.7 928.5,1505C 923.815,1501.8 918.815,1499.3 913.5,1497.5C 911.626,1497.39 910.126,1498.06 909,1499.5C 907.437,1507.4 902.77,1512.4 895,1514.5C 891.526,1526.82 890.692,1539.32 892.5,1552C 891.3,1571.73 882.966,1587.73 867.5,1600C 855.171,1608.43 843.671,1617.93 833,1628.5C 821.471,1652.68 806.805,1674.68 789,1694.5C 773.072,1711.43 756.239,1727.27 738.5,1742C 710.509,1762.17 679.176,1771.5 644.5,1770C 637.775,1771.13 631.775,1773.79 626.5,1778C 611.744,1789.42 597.577,1801.58 584,1814.5C 574.755,1825.98 566.755,1838.31 560,1851.5C 549.183,1865.16 535.016,1873 517.5,1875C 511.876,1876.96 507.043,1880.12 503,1884.5C 493.938,1903.62 481.271,1919.96 465,1933.5C 461.246,1939.26 456.746,1944.42 451.5,1949C 424.02,1960.74 398.02,1975.07 373.5,1992C 362.368,2001.4 350.702,2010.06 338.5,2018C 326.652,2024.45 313.985,2027.95 300.5,2028.5C 279.2,2026.68 257.866,2026.18 236.5,2027C 225.638,2028.22 214.971,2030.38 204.5,2033.5C 202.146,2033.49 200.146,2032.66 198.5,2031C 214.223,2011.94 228.39,1991.77 241,1970.5C 262.226,1943.27 281.893,1914.94 300,1885.5C 316.016,1866.15 334.516,1849.65 355.5,1836C 382.325,1821.42 408.658,1806.09 434.5,1790C 447.682,1779.91 460.682,1769.57 473.5,1759C 488.789,1750.05 501.956,1738.55 513,1724.5C 521.251,1711.67 529.251,1698.67 537,1685.5C 546.997,1672.75 559.497,1663.25 574.5,1657C 583.946,1653.22 593.613,1650.22 603.5,1648C 624.603,1632.91 646.27,1618.58 668.5,1605C 688.755,1592.37 707.755,1578.03 725.5,1562C 744.805,1541.69 764.471,1521.69 784.5,1502C 797.133,1492.09 809.3,1481.59 821,1470.5C 831.859,1457.12 839.859,1442.12 845,1425.5C 856.478,1415.78 869.644,1411.95 884.5,1414C 888.059,1415.23 891.392,1416.89 894.5,1419C 922.482,1445.31 950.815,1471.31 979.5,1497C 995.979,1509.41 1012.98,1521.07 1030.5,1532C 1032.63,1533.67 1033.96,1535.83 1034.5,1538.5C 1042.99,1544.58 1051.66,1550.41 1060.5,1556C 1068.38,1558.9 1076.38,1559.23 1084.5,1557C 1105.59,1545.79 1124.92,1532.12 1142.5,1516C 1166.36,1493.14 1189.86,1469.97 1213,1446.5C 1228.17,1426.99 1242.17,1406.66 1255,1385.5C 1273.27,1358.64 1292.27,1332.3 1312,1306.5C 1322.36,1295.8 1333.03,1285.47 1344,1275.5C 1351.51,1263.03 1361.01,1252.2 1372.5,1243C 1382.16,1236.17 1392.16,1229.83 1402.5,1224C 1420.19,1210.99 1436.69,1196.49 1452,1180.5C 1480.27,1144.22 1510.77,1109.72 1543.5,1077C 1547.83,1073.48 1552.5,1070.64 1557.5,1068.5 Z"/></g>
<g><path style="opacity:0.983" fill="#000000" d="M 933.5,1691.5 C 952.985,1693.42 967.318,1703.08 976.5,1720.5C 986.152,1722.99 992.318,1728.99 995,1738.5C 1016,1758.18 1038.17,1776.35 1061.5,1793C 1082.83,1807.33 1104.17,1821.67 1125.5,1836C 1137.53,1846.37 1148.53,1857.7 1158.5,1870C 1162.83,1873.67 1167.17,1877.33 1171.5,1881C 1205.18,1900.17 1239.18,1918.84 1273.5,1937C 1283.68,1942.59 1293.35,1948.92 1302.5,1956C 1308.25,1964.42 1314.75,1972.25 1322,1979.5C 1329.66,1993.32 1335.5,2007.82 1339.5,2023C 1338.83,2023.67 1338.17,2023.67 1337.5,2023C 1331.52,2017.67 1324.85,2013.34 1317.5,2010C 1313.97,2002.9 1308.64,1997.56 1301.5,1994C 1278.68,1971.27 1253.35,1951.94 1225.5,1936C 1216.81,1931.77 1207.98,1927.94 1199,1924.5C 1200.04,1935.96 1204.04,1946.29 1211,1955.5C 1233.63,1973.42 1246.97,1996.75 1251,2025.5C 1252.17,2033.68 1253.33,2041.84 1254.5,2050C 1254.15,2051.26 1253.48,2051.59 1252.5,2051C 1246.3,2045.14 1240.47,2038.97 1235,2032.5C 1225.69,2015.75 1213.86,2000.92 1199.5,1988C 1191.71,1982.55 1184.21,1976.72 1177,1970.5C 1159.47,1936 1139.14,1903.33 1116,1872.5C 1108.67,1864.6 1100.5,1857.76 1091.5,1852C 1071.18,1841.51 1051.18,1830.51 1031.5,1819C 1017.25,1809.42 1004.91,1797.75 994.5,1784C 988.06,1780.35 982.06,1781.01 976.5,1786C 964.898,1796.05 956.398,1808.22 951,1822.5C 949.333,1830.83 947.667,1839.17 946,1847.5C 944.228,1855.55 940.061,1862.05 933.5,1867C 925.333,1871.06 916.999,1874.72 908.5,1878C 894.544,1888.06 885.71,1901.56 882,1918.5C 870.85,1939.65 856.683,1958.48 839.5,1975C 824.966,1983.1 811.299,1992.43 798.5,2003C 779.406,2015.36 758.406,2021.03 735.5,2020C 724.21,2022.31 713.543,2026.31 703.5,2032C 676.066,2055.29 645.399,2060.95 611.5,2049C 607.178,2044.14 606.345,2038.64 609,2032.5C 617.043,2020.12 626.876,2009.29 638.5,2000C 652.924,1989.74 665.924,1977.91 677.5,1964.5C 682.184,1959.98 687.018,1955.65 692,1951.5C 712.042,1928.46 731.709,1905.13 751,1881.5C 754.005,1877.88 756.005,1873.88 757,1869.5C 756.5,1869 756,1868.5 755.5,1868C 749.976,1867.71 744.476,1867.21 739,1866.5C 736.008,1867.25 733.174,1868.41 730.5,1870C 721.355,1877.41 711.689,1884.07 701.5,1890C 680.833,1900.33 660.167,1910.67 639.5,1921C 617.746,1932.08 598.913,1946.92 583,1965.5C 572.608,1980.23 562.608,1995.23 553,2010.5C 542.517,2023.65 529.684,2033.82 514.5,2041C 513.5,2041.67 512.5,2041.67 511.5,2041C 524.572,2024.58 536.072,2007.08 546,1988.5C 548.121,1982.9 547.954,1977.4 545.5,1972C 540.979,1971.59 536.979,1972.92 533.5,1976C 528.5,1980.33 523.5,1984.67 518.5,1989C 511.167,1992.33 503.833,1995.67 496.5,1999C 474.981,2018.02 453.314,2036.85 431.5,2055.5C 429.554,2053.96 429.054,2051.96 430,2049.5C 434.724,2034.05 442.058,2020.05 452,2007.5C 468.865,1990.97 486.031,1974.8 503.5,1959C 508.122,1957.57 512.455,1955.57 516.5,1953C 546.968,1922.53 578.634,1893.53 611.5,1866C 625.516,1857 640.849,1852.33 657.5,1852C 671.356,1838.8 686.356,1827.14 702.5,1817C 708.802,1811.7 714.802,1806.03 720.5,1800C 727.66,1794.72 735.66,1791.39 744.5,1790C 755.181,1789.29 765.847,1789.46 776.5,1790.5C 790.661,1790.7 803.995,1787.54 816.5,1781C 852.775,1757.08 886.442,1729.74 917.5,1699C 922.557,1695.63 927.89,1693.13 933.5,1691.5 Z"/></g>
<g><path style="opacity:0.954" fill="#000000" d="M 1002.5,1837.5 C 1005.86,1837.07 1008.7,1838.07 1011,1840.5C 1016.75,1848.34 1021.75,1856.67 1026,1865.5C 1037.39,1891.95 1049.06,1918.28 1061,1944.5C 1065.61,1956.06 1069.94,1967.72 1074,1979.5C 1079,1988.5 1084,1997.5 1089,2006.5C 1090.96,2011.66 1091.8,2016.99 1091.5,2022.5C 1080.54,2020.77 1071.37,2015.77 1064,2007.5C 1056.27,1991.71 1048.27,1976.04 1040,1960.5C 1033.67,1944.17 1027.33,1927.83 1021,1911.5C 1017.92,1905.67 1014.59,1900 1011,1894.5C 1003.96,1878.26 1000.12,1861.26 999.5,1843.5C 999.754,1841.04 1000.75,1839.04 1002.5,1837.5 Z"/></g>
</svg>
